<?xml version="1.0" encoding="utf-8"?>
<!-- Generator: Adobe Illustrator 25.1.0, SVG Export Plug-In . SVG Version: 6.00 Build 0)  -->
<svg version="1.1" id="Layer_1" xmlns="http://www.w3.org/2000/svg" xmlns:xlink="http://www.w3.org/1999/xlink" x="0px" y="0px"
	 viewBox="0 0 30 30" style="enable-background:new 0 0 30 30;" xml:space="preserve">
<style type="text/css">
	.st0{fill-rule:evenodd;clip-rule:evenodd;fill:#262626;}
</style>
<path id="path2" class="st0" d="M30.01,29.09l-1.79-7.02c1.15-2.1,1.79-4.53,1.79-7.08C30.01,6.7,23.31,0,15.02,0
	S0.03,6.7,0.03,14.99s6.7,14.99,14.99,14.99c2.55,0,4.98-0.64,7.08-1.79l7.02,1.79C29.62,30.11,30.13,29.6,30.01,29.09z
	 M28.09,14.99c0,2.55-0.64,4.47-1.66,6.38c-0.13,0.26-0.19,0.57-0.13,0.89l1.34,5.36l-5.29-1.34c-0.32-0.06-0.64-0.06-0.89,0.13
	c-1.15,0.64-3.32,1.66-6.38,1.66c-7.27,0-13.14-5.87-13.14-13.08S7.81,1.91,15.02,1.91S28.09,7.78,28.09,14.99z"/>
</svg>
