<?xml version="1.0" encoding="utf-8"?>
<!-- Generator: Adobe Illustrator 16.0.0, SVG Export Plug-In . SVG Version: 6.00 Build 0)  -->
<!DOCTYPE svg PUBLIC "-//W3C//DTD SVG 1.1//EN" "http://www.w3.org/Graphics/SVG/1.1/DTD/svg11.dtd">
<svg version="1.1" id="Layer_1" xmlns="http://www.w3.org/2000/svg" xmlns:xlink="http://www.w3.org/1999/xlink" x="0px" y="0px"
	 width="1465px" height="425px" viewBox="0 0 1465 425" enable-background="new 0 0 1465 425" xml:space="preserve">
<g>
	<path fill="#CFB56A" d="M421.246,303.127h4.574c10.988,0,15.566,0.918,21.056,2.752c9.157,3.652,13.734,11.891,13.734,21.961
		c0,13.738-9.157,23.803-27.463,27.469l-1.831,0.92c11.9,4.568,19.224,13.725,19.224,24.717c0,11.896-8.242,21.965-21.974,23.799
		c-4.577,0.918-8.239,0.918-15.563,0.918c-2.744,0-6.405,0-7.321,0h-38.451l0.918-2.752c8.239-0.92,10.07-2.744,13.729-12.811
		l0.916-2.752v-1.832l20.14-63.162v-1.83l0.918-2.754c0.913-2.734,1.831-5.486,1.831-6.404c0-3.662-3.662-5.486-10.07-5.486
		l0.913-2.752H421.246z M392.865,401.99h9.157h3.662c13.729,0,19.225-0.906,23.802-6.404c4.574-4.576,7.323-12.813,7.323-20.137
		c0-8.238-3.662-14.652-10.07-17.396c-3.662-0.906-8.242-1.824-14.647-1.824h-4.577L392.865,401.99z M417.582,353.479h2.747
		c7.326,0,11.9-0.918,16.48-4.574c6.408-5.502,10.982-14.65,10.982-23.807c0-10.98-7.323-18.301-16.475-18.301
		c-4.578,0-7.327,0.906-9.158,5.486c-0.913,1.834-0.913,2.752-2.746,7.32c-0.916,2.75-1.831,4.578-1.831,7.32l-9.151,27.467h9.151
		V353.479z M474.342,406.58c-8.239,0-13.731-6.414-13.731-15.57c0-12.816,8.239-30.213,20.137-43.021
		c8.239-9.154,14.65-13.734,21.058-13.734c6.405,0,10.067,3.662,10.067,9.148c0,3.672-1.831,8.24-4.574,10.988
		c-4.574,5.49-12.816,10.994-23.801,17.4c-3.662,1.834-4.58,2.742-6.411,3.658c-1.828,5.496-3.659,14.65-3.659,18.303
		c0,4.59,2.743,7.332,5.49,7.332c5.493,0,11.9-5.498,19.227-16.48l0.913-1.83l1.836,0.914
		C492.648,398.342,482.578,406.58,474.342,406.58z M492.648,360.797c8.245-8.236,11.904-14.643,11.904-20.137
		c0-2.744-1.828-4.578-3.659-4.578c-3.667,0-8.245,3.67-12.819,11.906c-4.577,7.32-7.327,13.727-10.07,22.883
		C482.578,369.035,488.074,365.385,492.648,360.797z M523.776,391.928c0,0-1.828,4.576-1.828,5.494c0,0.92,0.912,0.92,0.912,0.92
		c1.831,0,8.239-6.414,15.563-18.313l0.913-0.918l1.831,1.834l-0.913,0.914c-10.067,15.563-19.224,24.721-27.463,24.721
		c-2.749,0-4.58-1.836-4.58-5.496c0-1.828,0.918-5.498,1.831-9.156l4.58-11.898l26.545-65.912c1.831-4.586,1.831-5.496,1.831-6.414
		c0-1.824-0.913-1.824-6.405-2.742h-1.831l0.916-1.834h21.974L523.776,391.928z M596.096,347.988
		c0,14.645-11.901,28.371-25.636,28.371c-1.831,0-2.743,0-4.574-0.91l-0.916,0.91c-3.659,2.752-5.489,4.586-5.489,6.414
		c0,1.83,1.831,2.742,9.148,5.492l8.239,2.744c10.076,2.742,13.738,5.494,16.481,9.156c1.834,1.824,2.747,4.578,2.747,7.33
		c0,10.064-10.988,16.477-28.379,16.477c-16.475,0-27.463-4.588-27.463-11.906c0-4.57,3.662-9.156,10.988-12.811l5.49-2.752
		c0.918,0,0.918-0.918,1.831-0.918c-4.578-2.744-6.408-4.576-6.408-8.238c0-4.574,3.659-8.236,10.988-13.723
		c-4.58-3.672-7.33-9.158-7.33-15.572c0-13.732,12.816-25.633,26.551-25.633c5.493,0,9.154,1.834,11.901,5.496
		c2.746-0.918,2.746-0.918,6.408-2.752c2.746-1.826,5.49-2.744,8.239-2.744c2.747,0,5.493,1.834,5.493,4.578
		c0,2.754-1.831,4.58-5.493,4.58c-1.831,0-2.749,0-5.493-0.918c-1.831-0.908-2.746-0.908-3.659-0.908c-0.918,0-1.834,0-3.665,0.908
		C596.096,344.32,596.096,345.24,596.096,347.988z M559.481,399.256c-9.158,3.654-10.988,6.406-10.988,10.068
		c0,6.41,7.32,10.061,19.224,10.061c5.493,0,11.901-0.916,16.478-2.744c4.58-1.824,6.411-3.658,6.411-6.41
		c0-3.65-2.75-5.486-8.242-7.32l-8.239-2.744l-9.155-2.744c-0.915,0-1.828,0-1.828,0
		C562.225,397.422,561.312,398.342,559.481,399.256z M582.364,336.082c-3.659,0-7.326,2.752-10.07,7.32
		c-4.577,7.33-8.239,17.395-8.239,23.809c0,4.58,1.831,7.322,4.574,7.322c2.749,0,6.408-2.742,10.076-8.242
		c4.574-7.32,8.239-16.475,8.239-22.889C587.857,338.834,586.026,336.082,582.364,336.082z M623.559,398.342
		c-5.49,5.486-10.07,8.238-13.729,8.238c-2.749,0-4.58-1.836-4.58-5.496c0-1.828,0.913-6.414,2.749-10.074l0.913-2.744l1.831-3.662
		l15.565-36.615l0.913-1.834c0.916-0.914,0.916-1.834,0.916-2.752c0-0.906-0.916-0.906-0.916-0.906c-0.913,0-1.831,0.906-5.49,4.578
		c-3.662,3.658-7.327,9.154-10.073,12.807l-1.828-0.91c9.151-14.65,21.052-25.633,27.463-25.633c2.743,0,4.574,1.826,4.574,4.578
		c0,1.836,0,2.744-0.916,6.404c-0.916,1.834-1.828,5.496-3.659,8.24c-0.918,1.83-0.918,3.668-1.837,3.668l-13.726,36.613l-2.75,0.91
		c-0.913,1.834-0.913,1.834-0.913,2.752s0,0.918,0.913,0.918c0.918,0,2.75-0.918,7.327-6.412c2.746-3.662,4.574-6.406,6.405-8.236
		l1.831,0.914C632.714,388.266,628.137,393.752,623.559,398.342z M638.207,318.689c-3.662,0-7.324-3.654-7.324-7.324
		c0-4.568,3.662-7.32,7.324-7.32c4.577,0,7.326,3.658,7.326,7.32C645.533,315.035,641.868,318.689,638.207,318.689z
		 M696.795,374.533c0,0.916-0.913,1.834-1.831,3.66l-3.662,10.072c-1.831,4.576-2.747,7.32-2.747,9.156c0,0.92,0,0.92,0.916,0.92
		s4.574-2.756,7.324-6.414c1.831-2.744,3.665-4.58,6.408-8.24l1.831,0.916c-1.831,3.662-6.408,9.148-10.07,12.818
		c-5.493,6.406-10.07,9.158-14.644,9.158c-2.75,0-4.58-1.836-4.58-4.59c0-0.906,0-2.734,1.831-7.32c0,0,4.577-13.725,4.577-14.641
		v-0.918c-3.659,4.576-9.151,11.898-11.9,14.641c-7.327,7.332-15.563,12.828-20.14,12.828c-2.744,0-4.575-2.752-4.575-6.414
		s0.913-7.324,3.662-13.734l1.831-4.572l9.152-21.979l1.831-3.652l2.744-5.496c1.836-4.578,1.836-5.492,1.836-7.33
		c0-0.906-0.918-1.824-0.918-1.824c-0.918,0-2.75,0.918-4.578,3.662c-2.743,2.748-5.49,6.402-8.239,10.068l-1.828,2.744
		c0,0,0,0-0.918,0.918l-1.831-0.918c8.239-14.65,19.224-25.633,25.632-25.633c2.75,0,4.58,1.834,4.58,6.414
		c0,3.662-1.831,9.154-4.58,17.395l-0.913,2.742l-10.076,25.633l-0.913,3.662l-1.831,4.576c-0.916,2.744-0.916,2.744-0.916,3.662
		s0.916,1.838,1.831,1.838c6.408,0,23.802-22.893,33.872-45.781l8.239-18.307h10.985L696.795,374.533z M813.059,382.773
		c-3.661,5.492-9.154,10.979-13.734,16.482c-5.495,4.572-10.064,7.324-13.734,7.324c-2.743,0-3.652-1.836-3.652-4.59
		c0-1.824,0.909-4.568,1.827-7.32c0.907-0.918,0.907-1.828,2.743-5.486c0.919-1.836,0.919-2.752,0.919-2.752l15.56-33.871
		l0.918-2.744c1.831-3.662,1.831-4.576,1.831-5.496c0-1.824-0.915-2.742-2.749-2.742c-1.825,0-4.568,1.824-9.157,6.41
		c-13.726,14.645-24.714,30.205-34.781,52.178c-1.834,3.662-1.834,3.662-2.743,5.496h-10.991c1.833-3.672,3.661-7.32,9.157-19.23
		c4.577-9.154,6.405-15.561,9.157-21.965c4.568-13.734,6.402-18.313,6.402-21.064c0-1.824-0.915-2.742-1.834-2.742
		c-1.825,0-5.487,2.742-10.063,8.244c-8.242,9.148-14.653,18.307-21.975,31.125c-0.912,2.744-2.742,6.402-6.404,11.898
		c-3.665,6.414-4.578,10.063-6.408,12.816h-10.988l11.901-28.377c0-0.918,0.918-1.834,1.831-4.576
		c3.665-9.158,7.327-17.4,9.157-22.887c0.912-3.664,1.831-5.502,1.831-6.408c0-0.918,0-0.918-0.919-0.918
		c-2.742,0-9.151,8.238-16.478,21.055l-1.831-0.918v-0.918c9.157-16.477,19.227-28.377,25.629-28.377
		c2.752,0,4.586,2.744,4.586,6.414c0,1.826,0,3.662-0.919,7.32c-0.915,2.75-2.748,8.236-3.667,11.898l-1.825,5.496
		c0,0-0.918,1.836-0.918,3.662c0.918-1.826,1.828-2.744,1.828-2.744l5.501-6.414c4.568-7.32,14.644-17.393,19.222-21.055
		c3.662-2.744,5.495-3.66,8.238-3.66c3.659,0,6.412,2.744,6.412,6.414c0,1.826-0.916,4.568-1.834,8.236
		c-0.919,3.654-2.75,10.064-5.496,15.561c-1.825,6.404-0.91,3.662-1.825,6.404l2.743-3.662
		c8.239-12.813,13.734-17.387,21.975-24.713c5.486-4.58,10.063-7.324,13.723-7.324c4.58,0,7.323,2.744,7.323,6.406
		c0,2.742-0.909,6.414-2.743,9.156l-1.828,4.574c0,0.918-0.916,1.838-0.916,1.838L796.581,390.1l-0.915,2.742
		c-1.837,2.744-0.919,1.828-0.919,2.744c0,0.918,0.919,0.918,0.919,0.918c1.834,0,6.402-3.662,14.641-14.645l0.916-0.914
		L813.059,382.773z M883.549,383.688c-0.91,2.744-1.828,5.496-1.828,6.412l-1.834,5.486c0,0.918-0.918,1.836-0.918,2.756
		c0,2.742,2.752,2.742,10.075,3.648l-0.919,2.754h-34.789l0.918-2.754c9.158-0.906,10.072-1.824,16.475-20.131l21.059-61.336
		c0,0-2.743,0.914-5.496,1.83c-2.742,0.918-10.066,1.828-10.066,1.828v-1.828c10.066-3.664,20.14-9.152,31.131-15.557l1.825,1.824
		L883.549,383.688z M932.07,371.791c-9.155,0-16.476-7.324-16.476-16.482c0-10.068,6.405-25.631,15.56-34.785
		c7.32-7.322,14.645-11.902,21.059-11.902c10.979,0,18.299,10.068,18.299,24.717c0,30.211-26.551,62.248-62.25,74.158l-0.906-2.752
		c16.475-8.24,29.285-19.229,36.605-34.791C939.393,371.791,936.641,371.791,932.07,371.791z M953.119,313.201
		c-4.568,0-9.158,4.568-14.645,12.814c-5.486,9.148-10.072,23.801-10.072,32.955c0,6.414,2.752,10.064,8.238,10.064
		c5.496,0,10.073-3.65,14.653-12.807c5.493-10.988,9.154-23.809,9.154-32.957C960.448,316.861,956.787,313.201,953.119,313.201z
		 M998.9,394.67h3.658c9.148,0,10.067-0.918,11.9-6.404l2.75,0.918l-6.408,17.396h-48.527c2.752-7.324,5.496-12.828,10.076-20.148
		c7.32-10.072,13.726-17.396,31.119-32.953c14.652-12.818,19.227-19.225,19.227-27.469c0-7.32-4.574-10.975-11.895-10.975
		c-9.157,0-18.314,6.402-26.551,17.385l-3.662-1.824c9.154-13.734,21.971-21.975,35.705-21.975c11.893,0,19.222,6.414,19.222,15.561
		c0,5.496-1.825,10.982-5.495,15.57c-4.568,5.488-8.239,8.236-23.799,19.219c-21.055,15.563-28.385,23.803-32.956,34.781H998.9
		V394.67z M1060.232,346.154c2.742-0.914,5.495-1.834,8.238-1.834c10.982,0,18.303,7.322,18.303,17.395
		c0,10.076-6.402,25.633-16.478,35.707c-7.321,7.322-13.726,10.074-20.131,10.074c-10.988,0-17.394-10.074-17.394-25.637
		c0-18.311,10.066-37.539,26.542-51.264c10.075-8.242,21.974-15.561,35.708-21.064l1.825,2.752
		C1080.371,322.354,1069.389,331.512,1060.232,346.154z M1066.646,348.904c-5.499,0-10.075,4.574-13.737,12.811
		c-6.411,11.91-10.07,22.889-10.07,31.127c0,6.414,2.744,10.986,7.327,10.986c4.571,0,10.067-5.486,14.644-14.645
		c5.487-10.072,10.076-22.893,10.076-29.303C1075.801,353.479,1071.215,348.904,1066.646,348.904z"/>
	<path fill="#CFB56A" d="M428.567,1.027c72.326,0,128.165,45.771,128.165,119.929c0,71.399-53.096,130.904-129.993,130.904
		c-87.882,0-126.334-67.744-126.334-125.417C300.405,74.259,339.769,1.027,428.567,1.027 M434.978,237.215
		c28.375,0,85.133-18.309,85.133-107.103c0-68.663-43.941-115.352-94.291-115.352c-53.093,0-89.713,35.7-90.626,102.527
		C336.107,186.868,377.305,237.215,434.978,237.215z M631.798,223.482c1.828-13.735,1.828-38.452,1.828-69.571V98.067
		c0-50.351,0-58.59-0.913-68.655V6.521c3.662,0,41.195-0.917,60.419-0.917c32.043,0,92.457-2.743,130.918,36.616
		c16.475,16.477,31.119,43.027,31.119,81.479c0,40.283-16.479,71.407-34.79,89.718c-13.726,14.645-44.854,36.615-99.784,36.615
		c-27.463,0-86.97-3.662-89.713-3.662L631.798,223.482 M665.67,132.855c0,33.864,0,63.167,0.918,69.569
		c0,8.239,1.831,18.314,4.575,21.976c3.665,6.412,11.9,12.814,50.346,12.814c30.21,0,53.099-8.236,72.32-27.467
		c16.478-16.478,25.636-46.68,25.636-75.981c0-40.279-17.396-66.83-30.205-80.556c-31.127-32.953-63.171-34.788-101.617-34.788
		c-6.411,0-14.647,0.918-17.396,1.835c-2.747,0.916-3.659,2.744-3.659,6.402c0,10.993,0,41.195,0,65.912v40.284H665.67z
		 M929.32,223.482c1.834-13.735,1.834-38.452,1.834-69.571V98.067c0-50.351,0-58.59-0.918-68.655l-1.834-23.808
		c4.586,0,12.824,0.917,19.23,0.917c4.58,0,13.725-0.917,17.393-0.917l-0.918,23.808c-0.916,10.065-0.916,19.223-0.916,68.655
		v55.845c0,31.119,0,55.836,1.834,69.571l1.837,22.889c-7.332,0-10.991-0.914-20.148-0.914c-8.239,0-13.726,1.832-19.228,0.914
		L929.32,223.482z M191.467,165.811c0-25.632,0-38.45,0-38.45c5.49,0,10.067,0.917,16.475,0.917c4.581,0,11.901-0.917,17.396-0.917
		v23.799c-0.916,10.072-0.916,20.147-0.916,32.956v35.705c0,14.645,0,14.645-4.58,17.395c-20.14,10.984-52.18,14.645-70.489,14.645
		c-30.212,0-77.813-5.488-109.853-35.697C21.188,197.85,1.052,165.811,1.052,126.443c0-51.267,25.635-86.966,54.011-105.271
		C83.445,2.861,119.141,1.027,143.864,1.027c20.14,0,43.941,4.577,50.35,5.494c6.408,1.827,18.309,2.745,25.629,2.745
		c2.75,0,3.665,1.835,3.665,2.75c0,4.571-1.828,1.828-1.828,34.781c0,3.662-3.668,1.837-7.33-1.825c0,0-4.577-3.669-7.321-5.496
		c-10.985-10.065-32.958-24.717-74.151-24.717c-20.14,0-42.113,1.828-64.084,19.223C50.483,48.634,36.757,77.928,36.757,115.46
		c0,44.856,22.883,77.81,33.872,88.801c25.629,24.717,50.35,32.038,80.556,32.954c11.904,0,25.632-0.916,32.959-5.496
		c5.493-2.74,7.323-6.398,7.323-11.898V165.811z M1228.677,5.604c1.827,0,10.063,0.917,13.734,0.917c1.825,0,1.825,0,11.9,0
		l-15.571,37.533c-3.653,9.156-20.128,46.689-37.524,86.967c-20.148,46.689-34.786,81.479-42.11,97.042
		c-9.157,19.227-10.991,23.797-13.734,23.797c-3.662,0-6.411-4.57-11.898-20.141L1053.82,35.817l-11.892-30.213
		c5.487,0,16.476,0.917,20.128,0.917c3.671,0,16.479-0.917,20.146-0.917c0,0,8.238,26.551,12.81,39.369l58.597,153.792
		c18.307-43.021,59.496-144.637,65.91-167.526C1222.263,25.744,1228.677,5.604,1228.677,5.604z M1424.578,233.555l-27.457-73.238
		c-0.919-0.918-0.919-1.837-2.743-1.837h-68.662c-1.833,0-2.752,0.919-3.67,2.752l-18.303,50.35
		c-2.744,8.239-12.816,34.79-12.816,34.79s-6.405,0-10.076,0c-3.649,0-9.154,0.918-12.808,0l13.727-34.79l75.066-197.737
		c3.667-10.984,6.41-12.818,8.238-12.818c1.834,0,4.586,2.751,8.239,11.908c4.586,11.892,55.845,142.81,75.066,191.326l15.568,42.11
		c-4.577,0-12.819,0-35.699-0.914L1424.578,233.555 M1389.791,143.837c1.834,0,1.834-0.915,0.916-1.834l-29.285-86.05
		c-0.919-2.744-1.834-2.744-3.668,0l-28.379,86.05c-0.918,1.834,0,1.834,0.913,1.834H1389.791z"/>
</g>
</svg>
