<?xml version="1.0" encoding="utf-8"?>
<!-- Generator: Adobe Illustrator 25.2.3, SVG Export Plug-In . SVG Version: 6.00 Build 0)  -->
<svg version="1.1" id="layer" xmlns="http://www.w3.org/2000/svg" xmlns:xlink="http://www.w3.org/1999/xlink" x="0px" y="0px"
	 viewBox="0 0 652 652" style="enable-background:new 0 0 652 652;" xml:space="preserve">
<style type="text/css">
	.st0{fill:#C6A86F;}
</style>
<g>
	<path class="st0" d="M198.1,352.4c27,0,48.2,17.1,48.2,45c0,26.9-20,49.1-49,49.1c-32.9,0-47.4-25.6-47.4-47.2
		C150,379.9,165,352.4,198.1,352.4 M200.6,441.1c10.8,0,32-6.8,32-40.3c0-25.9-16.4-43.5-35.3-43.5c-20.1,0-33.8,13.3-33.9,38.7
		C163.3,422,179,441.1,200.6,441.1"/>
	<path class="st0" d="M276.5,436c0.6-5.1,0.6-14.5,0.6-26.1v-21.2c0-18.7,0.1-22.1-0.2-25.9l-0.1-8.5c1.4,0,15.5-0.4,22.7-0.4
		c11.9,0,34.9-1.1,49.1,13.7c6,6.3,11.7,16.2,11.7,30.5c0,15.1-6.3,26.8-12.9,33.8c-5.2,5.4-17,13.8-37.4,13.8
		c-10.3,0-32.5-1.5-33.7-1.5L276.5,436z M289.5,401.8c0,12.7,0.2,23.7,0.2,26c0.2,3,0.8,7.1,1.8,8.3c1.6,2.3,4.6,4.8,18.8,4.8
		c11.2,0,20.1-3.3,27.1-10.3c6.3-6.1,9.6-17.6,9.6-28.7c0-15.3-6.6-25.1-11.5-30.2c-11.3-11.9-23.6-12.8-37.8-12.8
		c-2.4,0-5.6,0.4-6.7,0.9c-1.1,0.5-1.4,1.1-1.4,2.4c-0.2,4.1-0.2,15.5-0.2,24.8L289.5,401.8L289.5,401.8z"/>
	<path class="st0" d="M390.5,435.9c0.6-5.1,0.6-14.6,0.6-26.1v-21.2c0-18.7-0.1-22.1-0.2-25.9l-0.7-8.9c1.6,0,4.7,0.3,7.2,0.4
		c1.8,0,5.2-0.5,6.7-0.4l-0.2,8.9c-0.2,3.8-0.2,7.2-0.2,25.9v21.2c0,11.5,0,21,0.6,26.1l0.8,8.8c-2.6-0.1-4.1-0.4-7.5-0.4
		c-3.1,0.1-5.1,0.5-7.2,0.4L390.5,435.9z"/>
	<path class="st0" d="M108.3,414.1c0-9.7,0-14.4,0-14.4c2,0,3.9,0.3,6.2,0.4c1.9,0,4.4-0.4,6.4-0.4l0.1,8.9
		c-0.2,3.8-0.2,7.4-0.2,12.5v13.5c0,5.4-0.2,5.6-1.6,6.5c-7.7,4.1-19.7,5.4-26.6,5.4c-11.4,0.1-29.1-2-41.1-13.5
		c-7.1-6.7-14.3-18.9-14.3-33.6c0-19.2,9.5-32.8,20.1-39.5c10.8-6.7,24.2-7.6,33.4-7.6c7.6,0,16.7,1.6,19,2c2.5,0.6,6.7,1,9.7,1.2
		c1.2,0.2,1.4,0.6,1.4,1.1c0,1.7-0.7,0.9-0.9,12.9c0,1.3-1.3,0.8-2.8-0.7c0,0-1.6-1.2-2.7-2.2c-4.1-3.7-12.2-9.2-27.7-9.2
		c-7.5,0-15.7,0.7-24.2,7.4c-7,5.5-12.1,16.5-12.1,30.5c0,16.9,8.5,29.1,12.7,33.3c9.5,9.2,19,12.1,30.2,12.4
		c4.3,0.1,9.7-0.5,12.5-2c1.6-0.9,2.4-2.2,2.4-4.2L108.3,414.1L108.3,414.1z"/>
	<path class="st0" d="M505.3,354c0.8,0.1,3.8,0.3,5.2,0.3c0.7,0,0.9-0.2,4.4-0.2l-5.7,14.2c-1.3,3.4-7.5,17.7-14,32.5
		c-7.6,17.4-12.9,30.6-15.7,36.4c-3.4,7.2-4.1,9.1-5.3,9.1c-1.5,0-2.3-1.6-4.5-7.4l-29.8-73.6l-4.6-11.4c2.2-0.1,6.2,0.4,7.6,0.4
		c1.3,0,6.1-0.3,7.5-0.4c0,0,3.1,9.9,4.9,14.6l22,57.9c7-16.1,22.2-54.4,24.9-63.1C502.7,361.6,505.3,354,505.3,354"/>
	<path class="st0" d="M581.1,439.6l-10.4-27.3c-0.2-0.5-0.5-0.7-1.1-0.7h-25.9c-0.6,0-0.9,0.4-1.2,0.9l-7.1,19
		c-1.1,3-4.6,13.2-4.6,13.2s-2.4-0.1-3.8-0.1c-1.3,0-3.5,0.2-4.9,0.1l5.2-13.2l28.3-74.4c1.4-4,2.5-4.7,3.2-4.7
		c0.7,0,1.8,0.9,3.3,4.6c1.8,4.5,20.8,53.7,28,72l6,15.7c-1.8,0-4.9,0-13.2-0.2L581.1,439.6z M567.8,406.2c0.5,0,0.5-0.4,0.5-0.9
		L557.1,373c-0.5-0.9-0.8-0.9-1.3,0l-10.7,32.4c-0.2,0.6,0,0.9,0.4,0.9H567.8z"/>
	<path class="st0" d="M203.8,495.8l0.1,0.2c2.1,0.7,6,3.9,6,8.9c0,5.6-5.1,10.4-12.5,10.4h-18.3v-1.5c2.5,0,3.7,0.1,4.6-2.7
		l9.2-28.8c0.2-0.8,0.6-2.2,0.6-3.1c0.1-1.5-1.6-1.7-3.3-1.8l0.2-1.2H202c7,0,11.8,3.8,11.6,9.2C213.3,491,208.9,495.2,203.8,495.8
		 M197.6,496.7l-3.8-0.2l-5.3,16.8l5.3,0.4c7.8,0,11-3.7,11-10.4C204.8,497.5,199.9,496.8,197.6,496.7 M202.4,477.5
		c-2,0-2.8,0.6-3.4,2.7l-4.5,15c1,0.1,2.6,0,3.2,0c8.9,0,10.9-4.7,10.9-11C208.4,479.8,206.8,477.5,202.4,477.5"/>
	<path class="st0" d="M226.6,500.5c-3.1,1.9-5.4,3-7.9,4.2c-0.8,2-1.4,4.9-1.4,6.3c0,1.4-0.5,2.6,1.4,2.6c3.2,0,4.9-1.7,7.8-6
		l0.9,0.5c-2.7,4.2-6.1,7.6-9.7,7.6c-3.1,0-5-2.4-5-5.4c0-6.3,8.3-20.5,15.4-20.5c2.5,0,4.2,1.6,4.2,3.4
		C232.3,495.6,230.2,498.2,226.6,500.5 M227.8,491.3c-2.5,0.4-4.7,3-8.3,11.4c5.2-2.4,9.2-6,9.7-9.6
		C229.4,492,228.9,491.2,227.8,491.3"/>
	<path class="st0" d="M236.8,506.9c-1.3,3.3-1.4,3.9-1.4,4.5c0,0.7,0.2,0.5,0.6,0.5c0.9,0,2.8-1.9,4.9-4.7l0.8,0.7
		c-3.4,4.8-7.8,7.8-9.7,7.8c-0.9,0-1.3-1.2-1.3-1.9c0-0.7,0.3-2.4,1.2-4.5l12.1-29.1c0.5-1.1,0.7-2.3,0.5-2.5
		c-0.5-0.5-0.9-0.7-2.6-0.7l0.2-1.3l7.8-0.3L236.8,506.9z"/>
	<path class="st0" d="M267,493.3c-0.6,0-1.3-0.4-1.6-0.7c-0.5-0.3-0.5-0.6-1.3-0.5c-0.6,0.1-0.6,0.4-1.1,0.8
		c0.2,0.6,0.2,1.7,0.2,2.7c0,4.8-4.4,12.5-10.7,12.5c-0.8,0-1.8-0.2-2.3-0.3c-1.3,0.6-2.1,0.9-2.1,2.1c0,1,0.2,1,2.2,1.9
		c2.7,1.1,5.9,1.6,8.7,2.9c2,1,3.9,2.9,3.9,5.2c0,4.2-6.1,7.3-12,7.3c-6.4,0-11.1-2.7-11.1-5.9c0-2.8,2.9-4.7,7.5-6v-0.1
		c-1.6-0.5-2.2-1.6-2.2-3.3c0-2,1.5-3.1,4.1-4.6c-1.6-1-2.3-3.5-2.3-6.9c0-4.5,3.8-10.2,10.7-10.2c2.2,0,3.6,0.7,4.5,2
		c1.3-1.2,3.1-1.9,4.5-1.9c1.4,0,2.1,1,2.1,1.7C268.6,492.5,267.6,493.3,267,493.3 M256.2,517.7c-2-0.8-5.7-1.6-7.3-2
		c-4.1,1.3-5.8,2.4-5.8,5.4c0,3.8,4.3,4.4,7.9,4.4c5.4,0,8.8-1.9,9-4.4C260.2,519.2,258.7,518.7,256.2,517.7 M257.7,491
		c-4.8,0-7.8,7.6-7.8,11.4c0,2.4,0.2,3.9,2.3,3.9c4.5,0,7.8-9.1,7.9-12.4C260.2,492.1,259.6,491,257.7,491"/>
	<path class="st0" d="M272.8,504.3c-1.6,3.4-3.4,6.3-3.4,7.4c0,0.5,0.2,0.9,0.6,0.9c1.2-0.3,2.3-1,5-4.5l0.7,0.6
		c-2,2.6-5.8,7.4-9.2,7.4c-0.9,0-1.5-0.6-1.5-1.9c0-3.3,1.6-5.1,4.7-12c2-4.2,3.4-7.1,3.4-8.1c0-0.5-0.2-0.7-0.5-0.7
		c-1.3,0-4.3,3.7-5.4,5.1l-0.7-0.8c2.7-3.8,6.4-7.4,9.3-7.4c0.9,0,2,0.9,2,1.7C277.9,493.4,275.7,497.9,272.8,504.3 M277.6,481.2
		c-1.8,0-2.8-0.8-2.8-3.1c0-1.3,1.2-2.4,2.5-2.4c1.8-0.1,2.9,1.3,2.9,2.6C280.1,479.6,278.9,481.2,277.6,481.2"/>
	<path class="st0" d="M296.5,507.3c-1.3,3.1-1.4,3.4-1.4,4.2c0,0.3,0.1,0.6,0.4,0.6c1.1,0,2.6-1.3,5.4-5.5l0.7,0.8
		c-3.6,5.6-7.1,8.5-8.6,8.5c-1.6,0-2.1-0.9-2.1-2c0-1.3,0.1-2.3,2.2-7.8l0.2-0.7c-5.1,8.5-7.6,9.8-11.8,10.6
		c-1.5,0.3-2.6-1.7-2.6-3.4s1.9-5.2,4.2-10.3c2.5-5.4,3.9-8.1,3.9-8.8c0-0.4-0.1-0.6-0.5-0.6c-0.9,0-3.1,1.6-5.2,4.5l-0.6-0.5
		c2.7-3.4,6.3-7.1,8.7-7.1c1,0,2.1,1,2.1,2c0,1.3-1.6,4.6-4.6,11.2c-2.7,5.7-3.4,7.4-3.4,9c0,0.5,0.2,0.9,0.8,0.9
		c2.5,0,7.1-6,11.1-13c1.7-3.1,3.4-6.3,4.4-8.9l4-0.2L296.5,507.3z"/>
	<path class="st0" d="M335.2,503.3c-3,6.1-3.4,6.7-3.4,7.9c0,0.5,0.2,0.6,0.5,0.6c0.9,0,2.5-1.1,4.5-3.8l1,0.8
		c-2.7,3.8-6.8,7.2-8.9,7.2c-0.6,0-2-1.2-2-2.4c0-1.5,1.1-3.6,4.1-9.9c3.1-6.3,4.1-7.9,4.1-9.6c0-0.8-0.1-1.3-0.9-1.3
		c-2.7,0-6.8,4.9-11.1,12.6c-1.6,2.8-3.5,6.5-4.8,9.6h-3.7l4.7-11.3c2.1-5,3.4-8.2,3.4-10c0-0.5-0.1-1.1-0.9-1.1
		c-2.4,0-6.9,5.5-10.8,12.5c-1.7,3.2-3.8,7.4-4.7,9.8h-3.7c0.9-2,3-7.1,4.9-11.7c2.3-5.3,3.5-8.2,3.8-9.4c0.2-0.5,0.2-1.4-0.4-1.4
		c-1.1,0-3.1,2.4-5.6,6.1l-0.6-0.7c3.1-4.9,6.1-7.9,8.6-7.9c1.9,0,3.4,1,0.1,8.9l0.1,0.1c3.4-5,7-8.9,11-8.9c1.6,0,2.4,0.9,2.4,2.2
		c0.2,2.5-0.2,4.1-1.5,6.8l0.2-0.1c3.8-5.6,6.5-8.9,11.1-8.9c1.3,0,2.4,1,2.4,2.7C339.4,495.6,337.3,499,335.2,503.3"/>
	<path class="st0" d="M364.4,510.8c-0.2,0.5-0.4,1.3-0.4,2c0,0.9,0.4,1.3,3.4,1.3l0.2,1.1h-12.7V514c3.1-0.1,3.9,0,4.9-3.1l9.7-29
		l-4.7,1.3l-0.9-0.9c3.8-1.6,8.1-3.8,11.6-6l0.4,0.9L364.4,510.8z"/>
	<path class="st0" d="M375.7,515.5l-0.6-1c6.4-3.9,10.7-6.5,15.4-13.4l0.1-0.1c-0.8,0.9-2.9,1.6-5.9,1c-4.1-0.7-5.7-3.5-5.7-8.3
		c0-5.6,6.6-16.6,15.2-16.6c4.6,0,6.3,4,6.3,9.3C400.5,498.3,390.4,511.6,375.7,515.5 M394.3,478.4c-4.4,0-11,9-11,16.5
		c0,4,1.6,5.6,3.8,5.6c6,0,10.1-12.5,10-17.5C397.1,479.7,396.6,478.4,394.3,478.4"/>
	<path class="st0" d="M419.4,493.1c-4.5,4.2-9.9,6.3-14.5,11.3c-2.4,2.7-3.4,4.2-4.1,6.3H412c3.2,0,3.9,0.2,5.4-3.1l1.3,0.2
		l-3.6,7.4l-18.1-0.1c1.2-3.9,3.1-7.2,6.7-11.3c3.7-4.2,8.2-7.5,12.1-11.5c3.1-3.2,4.2-5.6,4.2-8.7c0-3.2-1.5-4.5-4.5-4.5
		c-3.6,0-7.6,2.4-10.2,6.7l-0.9-0.7c2.7-4.3,7.2-8.2,13.2-8.2c4,0,7.1,2,7.1,6.3C424.5,486.8,422.4,490.3,419.4,493.1"/>
	<path class="st0" d="M434.3,492.2l-0.1,0.3c1.4-1.3,3-1.7,5.2-1.7c3.8,0,6.7,2.2,6.7,7.7c0,4.5-5.4,17.2-14.8,17.2
		c-4.9,0-7.2-4.8-7.2-9.2c0-12.5,9.9-24.4,25.1-29l1,0.9C443.9,481.3,437.9,485.5,434.3,492.2 M437.8,492.3c-7,0-10,12.5-10,17.2
		c0,3.8,1.3,4.9,3.5,4.7c5.5-0.5,10.1-11.8,10.1-17.2C441.4,494.3,440.9,492.3,437.8,492.3"/>
	<path class="st0" d="M348.1,161.1c-1.7,0.9-3.1,2.5-3.4,4.3c0.1-1.4,0.5-3.1,0.7-4.6c0-0.2,0-0.2,0.1-0.4c1.6-2,2.1-5.2,2.2-6
		c0.1-3,0.9-8.1-4.5-10.9l-2.5,0.2c6.3,1.7,5.7,6.2,6,10.3c0.1,1.7-0.8,4.5-2.2,6c-0.2,0.2-1.8,1.3-2,1.3c0.3,0,0.9,0.4,1.6,0.2
		c-0.4,2.7-0.3,5.1,1.5,6.6c-0.5-0.5-0.8-1.3-0.8-2.2c0.8-2.2,2.9-3.4,5.2-3.8C349.6,162.1,348.3,161.5,348.1,161.1"/>
	<path class="st0" d="M326.4,221.3c-0.2-0.4-0.5-0.9-0.7-1.3c-3.3-6.1-0.9-12.9,3.2-15.7l-2-2.5c-2.6,2.2-8.9,11.8-2.4,21
		C325,222.8,325.7,222.5,326.4,221.3"/>
	<path class="st0" d="M334.1,229.7c0.5,0.5,0.9,0.9,1.4,1.3c2.4,2.3,4.8,4.5,7.3,6.7c1.4,1.3,4.1,2.8,3.7,5.1
		c-0.2,1.2-1.2,2-1.9,2.8c-0.8,0.9-1.4,2-2.1,3c-2.6,4.2-4.6,8.7-6.2,13.2c-1.4,3.9-2.6,8-3.4,12.1c-0.1,0.3-0.1,0.7-0.3,0.9
		c-0.2,0.2-1.4,1.4-1.8,2c-0.8,0.9-1.6,2-2.3,3.1c0,0.1-0.1,0.1-0.1,0.1c-1,1.8,1,2.8,1.1,4.9c0,1.2,0.2,2.4,0.2,3.4
		c0.2,1.6,0.3,3.2,0.5,4.8c0.1,0.8,0.2,1.6,0.3,2.4c0.1,0.4,0.2,0.7,0.2,1.1c0,0.2,0.1,0.3,0.1,0.5c0,0.1,0,0.4,0.1,0.5
		c0.2,0.1,0.2-0.5,0.2-0.6c0.1-0.2,0.1-0.5,0.2-0.8c0.2-0.7,0.3-1.4,0.5-2.1c0.5-1.8,0.9-3.5,1.3-5.3c0.2-0.7,0.3-1.5,0.5-2.2
		c0.9-4.8,2-10.3,2.8-12c0.4-0.8,0.8-1.6,1.3-2.4c2.8-5.6,6-11,9.3-16.1c1.7-2.7,3.5-5.2,5.4-7.7c1.5-2,4.9-4.5,4.1-7.4
		c-0.2-0.5-0.5-1-0.7-1.5c-0.6-1.3-1.3-2.6-2.1-3.8c-2.4-4.2-4.9-8.2-7.7-12.1c-1-1.4-2.3-2.8-3.4-4.2c0,0,1.8-1,1.9-0.9
		c2.9,4,5.7,8.1,8.4,12.1c1.5,2.4,3,4.7,4.4,7.1c1.5,2.5,2.8,5.2,0.9,7.9c-1,1.4-2.1,2.7-3.1,4.2c-2.8,3.8-5.6,7.5-8.4,11.4
		c-3.7,5.2-7.8,10.6-10.4,16.4c-0.2,0.5-1.3,8.9-1.9,10.7c-0.3,0.9-0.6,1.8-0.9,2.7c-0.5,1.4-1,2.8-1.5,4.2
		c-0.2,0.6-0.4,1.3-0.6,1.9c-0.1,0.2-0.2,0.5-0.2,0.8c0,0.1-0.1,0.5-0.2,0.5c0,0-0.1,0-0.2-0.1s-0.1-0.2-0.2-0.3
		c-0.1-0.2-0.2-0.5-0.3-0.7c-0.2-0.4-0.4-0.8-0.5-1.2c-0.2-1.3-1.1-7.4-1.5-8.7c-0.5-2-2.9-4.6-2.5-6.7c0.3-1.5,5.4-4,6-5.4
		c0.5-1.4,0.6-3.1,0.9-4.6c0.5-3,0.6-3.9,1.3-6.9c1.5-5.9,3.4-12,7.1-16.9c1-1.4,2.4-2.6,3.5-3.8c1.4-1.5-0.8-2.4-2-3.2
		c-1.4-1.1-2.8-2.2-4.2-3.4c-2-1.6-3.9-3.3-5.9-4.9L334.1,229.7z"/>
	<path class="st0" d="M394.6,225.2c-0.9-3.8-0.5-6.6-0.6-6.4c-0.3,0.2-0.5-1.3-0.7-0.9c-0.5,1.3-1,3.5-0.6,6.6c0.6,4.5,2,8.1,4,12.1
		c6.6,13.5,1.7,25.1-4.1,27.4c3.1,9.2,8.4,18.1,9.3,28.2c0.9,9.6,2.5,15.8,4.7,23.6c-1.7-3.5-4.4-7.6-6-11.4
		c-4.4-10.4-7.3-20.6-9.6-24.8c-1.6-3-3.8-7.2-6-9.6c0.5,2.3-0.2,4.2-0.7,4.9c5.1,5.5,7.2,13.2,10.6,20c-0.2,6,12,26,14.6,30.5
		c2.1,3.6,3.5,10.8,3.5,10.8s9.6,0,9.7,0c-0.2-0.6-2.1-3.5-3-4.5c-1.3-1.4-5.6-5.4-6.4-6.6c-1.6-2.5-3.1-5.2-4.3-7.9
		c-2.7-6.2-4.2-13.2-4-20c0.3-9.8-4.2-17.9-6.3-27.2c-0.3-1.3-1-4-1-4c3.2-4.1,10.3-14.1,1.4-27.5
		C396.8,235,395.6,229.6,394.6,225.2"/>
	<path class="st0" d="M425.3,188.9c0.6-0.7,4.2-4.2,3.8-4.9c-0.3-0.8-3.2,0.5-6.2,2c-0.9-1.2-1.9-2.4-2.4-2.9
		c-0.1-0.1-0.2-0.2-0.2-0.2c2.5-1.5,4.8-3,4.7-3.4c-0.2-1.4-5.1-1.6-9.9-0.9c-25.1-16-59.5-0.2-66.8,27.3c-0.2,0.9,0.3,4.2,0.2,5.1
		c-0.3,3.4-3.5,6.3-3.5,6.3c0.2,0.2,1.9,0.3,1.9,0.4c0,1.5,0.1,0.9,0.2,2.4c0.2,0.2,1.8,2.4,1.8,2.4c0-0.9,0-1.9,0.1-2.8
		c1.7-29.4,31.3-51.6,57.3-39.1c4.3,2.1,7.6,5,10.1,8.2c-0.2-0.2,0.5,6,0.3,5.8c0.7,2.4,0.3,2,0,4.7c-0.1,1-1.6,1.6-2.6,5.4
		c-1,3.4-1.4,26.1-1.1,27.3c0.5,2-0.6,2-1.6,3.4c-0.8,1-1.7,2-3.1,2.3c-2,0.4-1.1-1.8-6.7-2.5c-0.9-0.1-2.4-9-2.6-10.7
		c-0.8-10.5-10-21.5-10.4-23c0,0-0.5,4-0.4,4.2c0.7,1.2,7.1,12,7.8,13.8c1,2.4,1.7,4.8,2.3,7.3c0.3,1.4,1,9.1,1.8,9.8
		c1.3,1.2,2.7,1.6,4.2,1.8c1.1,0.1,2.2,2.6,4,2.4c2.7-0.2,3.1-2.4,3.8-3c3.6-2.7,2.2-8.8,2.3-10.7c0.2-6.2,1.4-17.9,1.7-19.4
		c0.8-4.9,1.3-2.2,2.4-4.2c0.6-1.1-0.6-8.3,0-8.9C419.3,192.6,423.8,190.6,425.3,188.9"/>
	<path class="st0" d="M301.1,175c0.1-1.1,1.6-1.3,2.4-1.6c1.2-0.6,1-1.6,1-2.9c0-3.1-1.2-6.8,0.9-9.5c2-2.7,4.6-4.9,7.7-6.1
		c4.3-1.8,8.6-3.4,12.8-5.4c0.9-0.4,1.6-0.9,2.4-1.2c1-0.3,2-0.6,3.1-0.9c2-0.6,4.1-1.3,6-2.2c0.9-0.4,1.6-0.8,2.4-1.4
		c0.5-0.5,1.3-0.9,2-0.7c0.4-0.5,0.5-1.8-0.2-2.1c-1.4-0.7-2.2,1-3,1.8c-1,1.1-2.7,1.7-4,2.4c-1.5,0.6-2.8,1.2-4.3,1.9
		c-1.6,0.8-3.4,1.1-5.1,1.8c-5.1,2.1-10.7,3.5-15.5,6.3c-2,1.2-4.6,2.8-5.8,5c-1.3,2.4-0.9,4.5-0.7,7c0.2,1.7,0.2,2.9-0.8,4.3
		C301.4,172.7,301.1,173.3,301.1,175"/>
	<path class="st0" d="M352,160.8c-1.1-0.9-2-2.1-1.7-3.4c-0.1,2.3,4.3,3.9,6.1,5c3.7,2.4,6.6,5.6,6.5,9.2s-0.9,3.8-1.7,5.2
		c-0.5,1-0.9,1.6-0.6,2.7c0.2,1.1,0.2,1.5-0.2,2.5c0.2-0.7-0.6-1.2-0.9-1.6c-0.5-0.7-0.2-1.3,0.2-2c0.8-1.8,2.1-4.1,1.9-7.4
		c-0.2-3.2-0.9-4.6-4-7.3C356.5,163.3,352.9,161.6,352,160.8"/>
	<path class="st0" d="M316.6,209.1c-0.2,0.2-0.2,0.4-0.4,0.6c-1.2,1.3-3,0.5-4.5,0.2c-0.8-0.2-1.8-0.2-2.4,0.2c1-0.7,0.9-1,2.2-1.3
		c0.9-0.2,2.2,0.2,3-0.4c0.9-0.7,0.9-2,1.8-2.7c0.8-0.6,1.9-0.8,2.8-1c3.1-0.7,2.1-2.9,3.2-4.9c0.4-0.8,1.3-1.4,2-1.9
		c-0.9,0.6-0.9,3-1.1,3.9c-0.2,1.3-0.8,2.6-2,3.2C318.8,206.3,317.9,206.7,316.6,209.1"/>
	<path class="st0" d="M329.8,143c-2.4,1.6-4.5,3-7.1,4.1c-5.1,2.1-10.7,3.5-15.5,6.3c-4.6,2.7-8.7,7-9.3,12.5
		c-0.2,2.2,1.6,5.4,0.9,7.1c-0.9,2.1-5,2.1-6.3,2.4c-3.9,1.1-6.9,3.6-6.3,6.5c0.6,2.9,0.7,3.7,0.3,5.6c-0.5,2.5-3.4,2.4-5.1,3.7
		c-2.7,1.8-2.6,3.3-2.9,6.3c-0.2,2.8-2.3,2.9-3.9,4.7c-1.6,1.9-1.1,3.1-1.6,5.3c-0.3,1.4-0.9,2.2-2,2.7c-0.1,0.1-0.1,0.2,0,0.2
		c2.7,0.3,2.7-3,3.1-4.2c0.7-2.4,1-3.3,3.5-4.5c1.1-0.5,2.8-0.6,3.3-1.9c1.1-2.6-0.8-4.7,1.4-6.9c1.6-1.6,4.6-1.3,6.3-3.1
		c2-2.2,0.3-5.1,0.2-6.2c-0.2-2,0.2-4.9,2.5-6.3c0.9-0.6,3.3-0.8,5.2-0.9c0.9,0,2-0.1,2.7-0.5c0.5-0.2,0.8-0.6,1-0.9
		c1.4-1.6,0.5-3.4,0.3-5.8c-0.6-6.9,3.8-13.4,10.2-16.1c4.3-1.8,8.6-3.4,12.8-5.4c2.7-1.3,5.2-3.2,7.9-4.6c2.2-1.1,5.7-2.8,8-1.2
		C339.2,137,331,142.1,329.8,143"/>
	<path class="st0" d="M300.9,192.9c0.8,0,1.3-0.2,2-0.6c2.1-1.3,3.1-3.4,3.4-5.6c1-5.9,8.5-11.7,15-14.4c3.6-1.5,10.1-7.9,11.9-12.1
		c-7.5,3.2-17.2,7.4-23,15.5l-0.9,0.6c1.1-0.7,2.3-4,3.3-5.2c1.9-2.1,4.2-3.8,6.6-5.4c2.7-1.9,5.8-3.4,8.8-4.9c2.2-1,5.6-1.2,6.4-4
		c3.1,4.9-7.9,15.3-11.8,17c-7.9,3.4-13.4,6-15.6,13.5c-0.7,2.4-2,4.9-4.2,6.1c-0.2,0.2-2,0.5-2.8,0.2c-1.3-0.5-3.8-1.6-4.2-1
		c0.5-0.6,1.2-0.9,2.3-0.6C298.1,192,299.9,192.8,300.9,192.9"/>
	<path class="st0" d="M294.4,183.6c0-0.4,0.1-0.9,0.2-1.3c0.5-1.9,1.9-2.9,3.8-3.1c1.9-0.2,3.5,1.3,5.2,1.1c0.9-0.1,1.7-0.7,2.4-1.3
		c1.3-1.3,2-3.1,2.4-4.8c1-5.9,8.1-12.4,14.8-14.6c7.8-2.6,12.1-9,11.9-12c-7.5,3.2-17.2,7.4-23,15.5l-0.9,0.6
		c1.1-0.7,2.3-4,3.3-5.2c1.9-2.1,4.2-3.8,6.6-5.5c2.8-1.9,5.8-3.4,8.8-4.9c2.2-1,5.7-1.2,6.4-4c3.1,4.9-2.9,13.2-11.8,17
		c-7.9,3.4-13.4,6-15.6,13.5c-0.8,2.6-2.1,5.8-5,6.6c-2.1,0.5-3.7-1.6-5.8-0.6c-1.6,0.7-2,2.4-2.3,3.9c-0.5,3.2-3.5,2.4-4.7,4.5
		c-0.2-1.6,1.6-1.8,2.5-2.7C294.4,185.6,294.3,184.6,294.4,183.6"/>
	<path class="st0" d="M297.9,194.4c-0.2-0.1-0.5-0.1-0.8-0.1c0,0.5,1,0.7,1.4,0.9c0.7,0.5,1.3,1.3,2,1.7c0.7,0.5,1.6,0.9,2.4,1.1
		c1.9,0.5,3.8,0.3,5.6-0.6c0.3-0.2,0.6-0.4,0.9-0.6c13-10.2,12.9-20.9,20.6-29.5c-1.2,0.5-2.5,1.1-2.5,1.1
		c-2.7,2.4-7.1,19-18.3,26.7c-1.6,1.1-3.4,1.6-5.3,1.5c-0.8-0.1-1.6-0.2-2.3-0.5c-0.7-0.3-1.3-0.8-1.9-1.2c-0.3-0.2-0.5-0.3-0.9-0.5
		C298.5,194.6,298.2,194.5,297.9,194.4"/>
	<path class="st0" d="M284.5,209.2c1-3.2,4.4-1.5,6.8-1.5c3.6-0.1,4.1-2.8,5-5.5c1.1-3.1,7.4-1.4,10.3-1.3c4.1,0.2,5.2,0.6,8.5-2
		c3.8-3,1.7-9.7,4-13.3c-1.2,1.8-2.8,2.1-3.4,4.6c-0.4,1.8-0.8,6-2,7.5c-2.6,3.2-3.9,2.6-7.8,2.4c-2.5-0.1-8.4-1.9-10,0.2
		c-1.9,2.4-1.3,5.6-4.8,6.2c-2.4,0.4-5.8-2.4-7.4,2.8C283.9,209.6,284.4,209.6,284.5,209.2"/>
	<path class="st0" d="M295.4,209.2c-1.3,0.3-2.7,0.2-3.9-0.3c-0.6-0.2-1.3-0.5-1.8-0.8c-0.5-0.2-1.2-0.4-1.8-0.7
		c0.2-0.2,0.9,0,1.1,0.1c0.4,0.2,0.8,0.2,1.2,0.3c1.2,0.2,2.6,0.9,3.8,0.5c3.7-0.9,2.4-5.4,5.6-6.7c2.3-0.9,5.2,0.2,7.4,0.9
		c14.9,4.9,21-8.8,15.2-16.5c-0.5-0.6-1.3-3.6-0.5-5.3l2.3-3.8c-2,4.9-1.1,8.1-0.5,9.1c6.7,11.6-5.3,23.1-16.4,17.5
		c-2.2-1.1-5.6-2.2-7.8-0.2C297.4,205.3,298.9,208.3,295.4,209.2"/>
	<path class="st0" d="M300.8,225.4c0.7,1.8,2.9,0.3,4.2,0.5c0.8,0.2,1.3,0.9,2,0.9c1,0,1.8-1.1,2.8-1.2c1.7-0.2,2.7,1.5,4.3,1.8
		c2,0.3,2.7-1.8,3.7-3c2.6-3.1,4.8-0.8,7.7-2.5c2-1.3,1.9-4.5,2.4-6.7c0.6-2.4,2-4.1,4.5-4.6c2.2-0.5,4.5-0.2,6.8-0.3
		c1.1-0.1,2.6-0.3,3.5-0.9c1.7-1.1,2-3.2,2.1-5.5c0.2,0.9,0.6,3.1-0.5,5.1c-1.3,2.2-4.2,2.7-6.7,2.9c-3.5,0.4-6.4-0.5-8.5,3.1
		c-1.3,2-0.2,5.1-1.8,7c-1.6,2.1-4.4,0.9-6.6,2.1c-1.4,0.7-1.9,1.9-2.7,3.1c-1,1.6-2.6,2.7-4.5,1.5c-1.3-0.8-2.3-1.6-3.9-1.6
		c-1.2-0.1-2.4,0.9-3.5,0.6c-0.5-0.2-0.9-0.5-1.4-0.7c-0.9-0.2-1.7,0.3-2.7-0.1C301,226.5,301.1,226.2,300.8,225.4"/>
	<path class="st0" d="M341.8,143.4c-0.2,0.2-0.3,0.4-0.5,0.5c-0.5-0.5-0.2-1.3,0.2-1.6c1.9-2.5,5.1-1.2,7.6-0.9
		c2.1,0.2,1.4-1.6,2.2-2.5c0.6-0.8,2-0.4,2.4,0.4c0.6,0.9-0.6,3.1,0.2,3.2c0.2,0.9-0.9,1-1.3,0.5c-0.6-0.8,0.4-1,0.5-1.6
		s0-1.7-0.7-1.7c-0.9,0-0.8,1.1-1.2,1.6c-0.5,0.6-1.5,0.9-2.3,0.9c-1.3,0.1-2.4-0.7-3.6-0.7C343.8,141.3,342.7,142.3,341.8,143.4"/>
	<path class="st0" d="M341,140.5c0.4-1.1,1.3-2,2.1-2.5c1.4-0.8,3.4-0.6,4.8,0.2c0.5,0.3,2.7,2.1,2.4,3c-1.3,0.2-1.3-1.4-2.2-2
		c-1-0.7-2.9-0.3-3.9,0.3c-0.7,0.4-1.3,0.9-1.8,1.6c-0.1,0.2-1.2,2.1-1,2.1c-0.1,0-0.2,0-0.2,0C340.5,142.3,340.6,141.3,341,140.5"
		/>
	<path class="st0" d="M325.7,142.2c1.8-0.5,2.7-1.6,3.7-3.1c0.5-0.8,1.3-1.4,2.2-1.9c0.5-0.3,1.2-0.5,1.8-0.2
		c0.5,0.2,0.8,0.9,1.3,0.9c1.5,0.2,2.4-1.8,4.1-1.1c1.5,0.6,1.3,2.6,1.9,3.8c0.2,0.5,0.5,0.9,0.8,1.3c0.5-1.9,0.4-3.8-0.8-5.3
		c-1.1-1.5-2.7-1.7-4.2-0.9c-1.6,0.9-3.5-0.3-5.1,0.5c-1.1,0.6-2,2.1-2.7,3c-1.1,1.3-2,1.7-3.7,1.3c-1.7-0.5-3.1,1-3.4,2.6
		c-0.2,1.3-0.2,3.4-1.6,4.1c1.5,0.7,2-0.9,2.4-2C322.8,143.5,323.9,142.7,325.7,142.2"/>
	<path class="st0" d="M283,203c2.7-0.1,2.8-3,5.8-3.5c3.1-0.5,1.3-5.2,8-5.2c0.6,0,1.1,0.2,1.6,0.4c0.5,0.2,0.9,0.3,1.2,0.7
		c0.2,0.2,0.3,0.3,0.5,0.5c0.2,0.2,0.1,0.3,0.1,0.6c-1.6-0.9-3.8-1.6-5.6-0.7c-1.4,0.7-2.4,1.9-2.8,3.4c-0.8,2.8-2.1,1.8-3.6,2.4
		C286.3,202.6,285.2,204.3,283,203"/>
	<path class="st0" d="M262,215.3c-0.7,0-1.4,0-2.1-0.1c-11.7-0.7-15.4-4.5-24.2-0.3c-0.2,0.1-0.5,0.2-0.7,0.4
		c-8.6,4.6-5.6,12.4-11.3,17.2c-5.1,4.3-14.4,6.7-18.8,10.2c-2.7,2.2-3.8,5.5-4.2,6.9c-0.8,3.6-0.3,8.2,2.4,12.6
		c2.1,3.4-1.4,5.5-0.6,8.9c0.7-2.6,2.5-4,3-6.3c0.4-2-0.4-3.8-1.5-5.6c-1.3-2-2-6.5-1.6-8.9c0.5-3.2,4.2-5.3,7.4-6.6
		c8.5-3.4,17.1-8.8,19.2-17.2c3.2-13,15.9-12.7,24.6-11.1c-5.8,0.2-11.1,1.3-15.9,4.3c-5.1,3.3-6.8,10.8-8.8,13
		c-10.2,11.2-23,12-22.2,32.8c0,1.1-1.6,4.3-2,5.9c-0.5,1.5-1,2.9-0.9,4.5c0.1,0.6,0.3,2.7,2,3.5c-0.5-0.9-1.1-2.1-1.1-3.1
		c0-1.3,0.5-2.2,0.9-3.4c0.6-1.6,1.3-3.3,1.8-5c0.8-2.7,1.2-5.6,1.5-8.4c1.1-12.4,9.4-15.6,20.4-22.4c2.7-1.7,3.8-4.1,4.6-6.4
		c0.4-1.3,0.8-2.6,0.9-3.9c0.2-1.6,0.5-3.2,1.6-4.5c0.2-0.3,2.2-1.7,2.5-2c3.2-2.2,7.2-2.9,11.1-3.6c3.2-0.6,5.9-0.4,8.8-0.2
		c0.2,0.1,0.5,0.1,0.7,0.2c-4.5,0.3-9.3,1-14.1,3c-0.7,0.3-1.6,0.6-2.4,1c-0.6,0.4-1.3,0.7-1.9,1.1c-3.1,1.8-4.3,4.7-4.8,7.8
		c-0.5,3.8-1.4,7.3-5.1,9c-24.7,11.5-18.2,20.8-21.6,28.5c-2,4.5-3.6,8.1-2.4,12.8c0.8,2.9,6.3,10.1,19,11.7
		c-6-2.9-20-5.7-17.8-17.6c0.8-4.1,4.2-10.7,4.6-15.7c0.2-1.6,1.3-3.3,2.4-4.9c4.5-5.8,13.2-7.4,18.1-12.6c3.1-2.8,4.8-6.4,5.4-10.2
		c0.3-1.7,0.8-6.3,4.8-8.8c2.1-1.3,4.8-2.1,7.2-2.7c2.2-0.5,4.5-0.7,7.1-1c-0.5,0.2-1.2,0.3-1.5,0.4c-0.9,0.2-1.8,0.5-2.7,0.8
		c-1.8,0.6-3.5,1.3-5.2,2.1c-3.5,1.6-6.6,4-7.1,6.7c-2.5,15.1-14.8,18.3-23.4,28c-1,1.3-1.7,2.5-2.2,3.8c-0.5,1.3-0.6,2.7-1.8,4.5
		c-5.6,9.1-4.7,24.8,11.8,23c-7.4-1-14.5-6.3-14-13.2c0.9-4.5,4-8.8,5.6-12.4c1.6-3.5,2.2-5.6,4.8-7.4c10.4-7.1,19.5-12.8,19.7-23
		c0.1-4,3.3-7.3,6-8.6c3-1.5,5.7-2.5,8.9-3.4c-0.6,0.3-6,3.1-10.1,6.1c-2,1.5-4.2,6.6-4.4,10.3c-0.6,11.4-7.6,15-18.2,21.7
		c-5.2,3.2-8.4,10.3-8.9,15.6c-0.3,3,0.2,6.1,2.8,8.3c1.4,1.2,3.1,1.8,4.9,2.2c3.1,0.8,3.9,1.1,5.8,3.5c1.7,2.2,2.8,2.6,5.8,3.7
		c-2.6-2.5-2.4-5.6-4.8-7.9c-2-1.9-5.2-1.5-7.5-2.8c-2.4-1.3-3.2-3.7-3.5-6c-0.8-5.9,2.5-11.8,7.4-15.7c0.5-0.5,1.6-0.7,2.3-1
		c4.3-1.7,8.3-4.1,11.2-7.3c2-2.2,3.4-4.9,4.2-7.6c0.5-1.6,0.7-3.4,0.7-5.1c0.1-2.1,0.2-3.8,0.7-6c1.1-4.5,4.8-6.8,6.9-8.4
		c1.5-1,3.2-1.6,4.9-2.3c0.8-0.2,3.8-1.3,3.8-1.3s2.8-3.2,3.1-3.7C264.6,215.4,262.4,215.2,262,215.3"/>
	<path class="st0" d="M332.9,273.3c0,0,0.4-3.1,0.3-3.1c-8.4-0.5-20.5-3.1-25.9-4.8c-0.2-0.1-0.3-7-5.7-10.7c-0.7-0.5,0.5,2,0.9,4.6
		c0.5,3.6,0.2,7.9,0.2,8.3c0,9.4-4.5,26.8-4.4,27.3c0.5,3,0.8,5.5,5.7,8.9c7.4,5,21.2,18.9,21.4,20.1c-15.1-11.6-26-18.2-33.3-20.1
		c-2.2-0.5-4.5-27.3-16.8-36.7c-6.1-4.6-12.8-8.6-15.5-13.9c-7.7-15-3-33.4,16.8-41.2c15.6-6.1,38.1,0.9,46.1,3.6
		c0.2,0.1,0.2-1.6-0.2-1.8c-6.3-2.7-30.6-10.3-49.4-3.6c-21.2,7.6-26.9,28-15.7,46.4c7.3,11.9,24.4,13.5,26.4,34.8
		c0.5,4.5,0.8,7.6,0.9,9.7c0.2,3.9,2.9,5.1,5,5.4c6.3,1,38,17.5,40.3,26.7c0.2,0.7-0.1,2-0.5,2.6l11,0.1c0-0.9-2.4-4.5-3.5-6.2
		c-2.6-4.1-21.3-17.9-23-19.6c-11.1-10.5-12.1-18.4-12-19.7c0-0.6,3.1-20.2,3.4-22.1c0-0.2,0-0.2,0-0.2c0.3,0.1-0.3-5.2,0-5
		c0.2,0.1,1.4,5.6,1.6,5.6C313.3,271.1,328.1,273.2,332.9,273.3"/>
	<path class="st0" d="M337.5,273.7l2-3.1c0,0,10.9,0.3,16.1-1.4c0,0,10.7,12.3,14.9,16c2.8,2.5,10.6,9.8,11.8,10.7
		c1.3,0.9,2.7,2.4,2.9,4.1c0.2,1.5-0.9,2.7-1.6,3.9c-0.7,1.4-3.8,8-4.7,9.9c1,0,11.4-12.9,9.6-16.1c-2.4-4.3-4.9-8.6-7.4-12.8
		c-1.7-2.8-3.5-5.6-5.5-8.1c-0.5-0.6,2-2.2,3.8-4.7c1.8-2.6,3-6,3.1-5.7c0.1,0.1,1.3,4.5,0.3,7.1c-0.5,1.1-2.5,3.4-2.4,3.7
		c3.4,5.6,7.3,14.1,8.5,16.5c0.9,1.7,2.8,3.4,3,5.8c0.2,3.1-7.6,12.1-9.6,14.2c-2.8,3-4.5,6.4-7.1,8.9c-1.3,1.3-10.1,6.3-10.1,6.3
		c0.2-0.9-0.4-9.6-0.2-10.8c0-0.2,8.5-1.1,9.1-1.6c2.7-2.4,4.5-6.9,6.2-10c0.9-1.6,2.4-3.5,2.7-5.5c0.2-2.2-2.2-3.8-3.8-4.8
		c-4.2-2.6-12.1-10.2-14.5-12.1c-2.4-2-9.2-8.6-9.9-10.3C348.8,274.2,337.5,273.7,337.5,273.7"/>
	<path class="st0" d="M247.9,276.1C248.1,276,247.7,276,247.9,276.1"/>
	<path class="st0" d="M255.8,280.3c-3.1-0.2-4.1,3.4-4.4,4c-0.2,0.2-0.5,8.1-0.9,13.7c-0.2,2.5-0.9,5.5-1.8,8.2
		c1.3-9-1.1-19.7-2.2-23.8c-0.7-2.6,0.8-5.2,1.8-5.5c2,0.2,10.5-6.8,15.7-13.2c0,0,7.3,2.5,9.6,5.2c2.4,2.6,6,6.8,6,6.8
		C273.1,282.1,267.7,281.2,255.8,280.3 M280.4,276.9c-3.5-3.9-19-16.2-19-16.2c-0.5,1-1.2,2.7-2,3.8c-4.7,6.3-11.3,10.2-12,10
		c-1.3,0.2-2.8,1-3.7,2.2c-1.1,1.6-1.2,3.6-0.5,5.2c2,4.8,3.1,14.9,2.9,19.2c-0.2,4.4,0.3,8.2-1.3,12.3c-2,4.9-10.9,4.7-11.6,4.9
		l4.7,9.9c0.7-0.5,5.2-3.8,6-5.4c1.8-4,1.9-4,3.1-7.1c0.7-2,4.3-10.7,4.9-13.6c0.9-4.6,1.3-9.2,1.2-9.9c0-0.1,0.3-4.1,0.6-4.6
		c0.4-0.7,1.1-1.5,1.9-1.8c0.9-0.4,5.2-0.8,6.4-0.7c0.8,0.1,11.1,0.9,16.7-4C278.6,281.2,281.6,278.3,280.4,276.9"/>
	<path class="st0" d="M332.2,190.2l-0.4,1.4c0,0.1,0,0.1,0,0.2c0-1.6,0-3.1,0-4.5C332.2,188.2,332.5,189.2,332.2,190.2 M346.3,179.2
		c-0.9,0.4-3.4,2.5-3.6,2.7c-0.4,0.8-0.7,1.7-0.9,2.7c-0.4,2.3-0.3,3.1-1.6,4.2c-0.5,0.5-5.5,3.8-7.7,4.9c0.2-0.6,0.5-1.3,0.6-1.9
		l0.4-1.5c0.4-1.7,0.1-3.6-0.9-4.9c-0.4-0.5-0.4-1.4-0.5-2c0.1-0.7,0.2-1.4,0.2-2c0.1-1.2-0.5-2.4-0.5-3.4c0,0.7-0.7,1.5-0.7,2.4
		c-0.1,1.7-1.6,11.8,0,15.9c0.3,0.9,7.6-5.1,9.5-6.7c2.4-2,1.9-3.9,2.7-6.6c0.2-0.7,2.5-2.9,3.3-3.4c1-0.7,3-1.3,3.4-1.5
		C349.4,178,347,178.9,346.3,179.2"/>
	<path class="st0" d="M345.7,148.1c-0.8,0.3-2.2,1.5-2.3,2c-0.1,0.6,0.2,1.6,0.4,2c0.4,0.9,0.5,0.7,1,1.6c0.2-0.4-0.4-1.2-0.5-1.4
		c-0.2-0.6-0.2-0.6-0.2-1c-0.1-1.4,1.5-0.9,1.3-2.6"/>
	<path class="st0" d="M345.9,185.4c-0.7,1.6-0.3,2.7-1.5,4.2c-3.1,4-14.6,13.9-15.1,13.3c-2.7-2.8-3.8-11.6-3.8-17.9
		c0-4.6,0.3-9.5,1.3-12.1c1-3.1,2.6-4.8,4.8-5.4c0.5-0.2,1.1-0.2,1.7-0.2c1.9,0,6.1,1.3,6.9,3.4c-0.5-1.5-1.7-2.7-3.1-3.5
		c0.2-1.4-0.2-6.6-1-9.9c0,0,0,0.2-0.8,0.2c-0.7-0.2-1-1.2-1-1.2c0.4,1.3,1.8,8.8,1.8,10.4c-1.6-0.7-3.3-0.9-4.9-0.5
		c-2.7,0.7-4.5,2.8-5.7,6.3c-1.1,3.2-1.4,9-1.4,14.2c0.1,5.6,0.9,15.3,4.3,18.6c1.6,1.6,15.8-13.5,17-16.3c0.5-1.2,0.9-2.7,1.9-4.8
		c0.9-1.7,1.6-4.5,2.6-6.1C349.1,178.8,346.8,183.2,345.9,185.4"/>
	<path class="st0" d="M349.2,212.1c-1.6,5.4-1.3,4.5-4.6,6.6c-3.8,2.4-3.6,4-3.1,7.4c0.5,3.1-1.3,3.8-3.9,3.3
		c-3.1-0.6-4.2,3.4-7,3.1c-1.4-0.2-2.3,0.5-3.7,1.2c-0.7,0.4-2.1,1.4-2.8,0.5c1.7,0.2,2.1-1.3,3.2-2.1c1.3-0.9,2.9-0.5,4.3-1.3
		c1-0.5,1.4-1.8,2.5-2.3c1.3-0.5,2.7,0.5,3.9,0.1c1.9-0.6,1.5-3.4,1.1-4.9c-1-3.8,3.7-5.2,4.9-6.3c1.3-1.1,2.7-2.5,3.4-4.9
		c1.3-4.5-0.1-7.4,0.1-10.4c0.1-1.4,0.1-2.2,0.9-3.4c0.8-1.3,2.4-2,3.4-3c0.9-0.9,2.4-1.9,3.4-2.4c-1.3,1.5-3.7,3.1-4.9,4.2
		c-1.4,1.5-2.2,3.1-2,5.3C349.1,205.6,350.1,209.2,349.2,212.1"/>
	<path class="st0" d="M369,171.3c-1.3-1.1-2.9-1.4-2.1-3.8c0.4-1.2,1.1-2.3,0.8-3.8c-0.2-1-0.8-2-1.6-2.5c-0.9-0.6-2.1-0.8-3.2-0.9
		c-1.3-0.1-2.5-0.2-3.7-0.2c-0.5-0.1-1.3-0.2-1.9-0.4c-0.2-0.1-0.9-0.4-1.3-1.1c-0.5-1.1,0.9-1.5,1.6-2c0.5-0.4,1-0.9,1.3-1.5
		c0.8-1.6,0.4-3.5-1.3-4.2c-0.7-0.3-0.7-0.9-0.2-1.4c1.3-1.4,1-5.3-2.7-5.2c-1.9,0.1-2.4,1.3-4.5,1c-1.2-0.2-1.9-0.5-2.4-2.2
		c-0.4-1.5-1.9-2.3-3.3-1.4c-0.7,0.4-1,1.1-1.3,1.8c-0.1,0.2-0.5,0.9-0.1,0.9c0.4,0.1,0.4-0.5,0.5-0.8c0.2-0.2,0.3-0.3,0.5-0.4
		c0.8-0.4,1.8-0.2,2,0.7c0.7,3.7,1.5,4.9,2.4,6.4c0.5,0.8,1.2,1.9,0.5,2.6c-0.5,0.5-1.4,0.5-1.5,1.6c-0.1,0.9,0.5,1.9,1.6,1.7
		c1.3-0.2,1.2-2.1-0.2-1.9c0.5,0,0.7,0.7,0.3,0.9c-0.7,0.5-1.3-0.4-0.9-1c0.3-0.4,1-0.8,1.4-1.1c1.5-1.2,0.5-2.7-0.4-3.9
		c-1.3-1.7-2.4-3.4-2.4-5c1.6,3.4,5.5,1,7.7,0.6c2.4-0.5,3,2.5,1.1,3.8c-1.8,1.3-0.9,2.3,1.2,2.9c0.3,0.1,0.6,0.2,0.9,0.5
		c0.5,0.6,0.3,1.5,0,2.1c-0.2,0.4-0.5,0.8-0.9,1.1c-0.4,0.3-0.9,0.6-1.2,1c-0.2,0.2-0.5,0.6-0.5,0.9c-0.1,0.3-0.1,0.6,0.1,0.9
		c0.1,0.3,0.3,0.6,0.6,0.9c0.5,0.4,1.1,0.7,1.8,1c0.9,0.4,2.5,0.9,3.3,1c1,0.2,2.1,0.5,2.9,0.9c1.6,0.9,2.7,1.9,2.2,4.7
		c-0.2,1.6-1.7,2.3-0.7,3.8c0.6,1,2.7,1.2,3.4,2.5c1.1,2.4-0.6,3.1-2,4.1c-1,0.7-1.9,1.2-2.1,2.4c-0.4,1.7,1.3,3,0.2,4.9
		c-0.6,1.1-2,1.6-3.2,2c-1.6,0.5-1.7,1.4-3.1,2.4c-1.5,1.1-2.9,2.7-4.2,3.9c-2.2,2-6.9,2-8.3,4.9c-1.7,3.4,0.7,8,0,11.4
		c-0.7,3.8-5.3,4.2-8.4,4.5c-3.8,0.3-6.4,1.9-5.2,5.9c0.9,2.8,1.6,3,1.2,4.8c-0.5,2.4-3.4,2.5-5.2,3.2c-2.4,0.9-3.5,3.4-7.8,3.4
		c-1.7,0.1-3.1-0.4-4.8,0.2c-1.9,0.7-3.5,2-5.6,0.4c-0.6-0.5-0.6-1.6-1.5-1.9c-1.1-0.3-2.3,0.7-3-0.6c-0.2,2.4,1.9,1.1,3,1.6
		c1.2,0.5,1.6,1.9,2.7,2.4c1.7,0.8,3.6-0.1,5.3-0.5c1.8-0.5,2.8-0.1,4.5,0.1c2.8,0.2,3.9-1.5,6-2.9c2.2-1.5,5.8-1.3,7.5-3.2
		c2-2.2-0.1-5.2-0.3-6.2c-1-3.5,0.2-5.9,7-6.4c3.1-0.2,4.7-1.9,4.9-2.1c2.7-3.2-0.2-8,0-11.4c0.2-3.1,3.4-3.5,5.6-5.1
		c2.1-1.5,3.3-3.2,5-5.1c0.2-0.2,0.4-0.4,0.5-0.5c1.7-1.6,3.6-2.3,5.6-3.4c1.3-0.8,2.7-1.9,2.8-3.4c0.2-1.6-0.5-3.2,1.1-4.4
		c1.3-0.9,3.1-1.7,3.6-3.5C371.2,173.3,370.4,172.4,369,171.3"/>
	<path class="st0" d="M347.1,146.1c1.7,3.7,5.1,2.9,6.4,2c3.4-2.5,3.8-0.7,2.8,0.2l0.9-0.2c0.4-1.8-0.5-2.7-3.4-1.3
		c-2,1-5,0.4-6.9-3.3L347.1,146.1z"/>
	<path class="st0" d="M347.4,154.7c-1.2,1.8-2,5.8,0.7,8.1c1.3,1.3,3.9,1.6,4.5,3.5c0.8,2.7-1.3,5.2-2.1,7.7c-0.4,1-0.4,2-0.5,3.1
		c-0.2,1.6,0.6,2.4,0.9,3.8c0.2,0.6-0.1,1.3-0.1,1.8c-0.1,1.4,0.9,2.5,0.8,4c-0.2,3.1-2.6,5-3.4,7.8c0.3-1.1,1.6-2.3,2.4-3
		c1.4-1.2,1.7-2.3,1.9-4.2c0.1-1.5-1.3-3.1-1-4.5c0.2-1.4,0.4-2.4,0.1-3.7c-0.5-2.4-0.4-4.5,0.5-6.7c1-2.4,3-7-0.2-8.6
		c0.4,0.1,0.9,0.2,1.3,0.3c0.5,0.2,2.2,1.4,2.7,1.9c1.3,1.3,1.3,2.7,0.6,4.9s-2.5,3-3,4.9c-0.2,0.9-0.2,1.7,0.1,2.7
		c0.2,0.8,0.8,1.6,0.8,2.4c-0.1,0.9-0.3,1.6,0.2,2.5c0.3,0.5,0.8,1,1.1,1.6c0.6,1.4,0.4,2.8,0.6,4.3c-0.2-0.8,0.4-1.6,0.5-2.4
		c0.1-0.5-0.1-1.1-0.2-1.6c-0.2-0.9-0.7-1.5-1.2-2.3c-0.6-1,0-1.7,0.1-2.7c0.2-1.3-0.7-2.5-0.6-3.8c0.1-1.5,1.3-2.3,2.1-3.5
		c1.3-2.2,1.3-5,0.2-6.8c-1.7-2.8-6.2-3.1-8.5-5.1c-1.9-1.6-2-4.1-0.9-6.3l0.2-0.7L347.4,154.7z"/>
</g>
</svg>
