<svg id="Layer_1" data-name="Layer 1" xmlns="http://www.w3.org/2000/svg" viewBox="0 0 75.74 118.02"><defs><style>.cls-1{fill:#eee;fill-rule:evenodd;}</style></defs><path class="cls-1" d="M69.88,82.35l-.14,0-.35-1-.06.12,0-.12-.06.12,0-.12-.56,1.13-1-.34v0l-.11,0v0l-.11,0,.39,1.19-1.19.59,1.19.4-.39,1.38.12-.06,0,.06.12-.06,0,.06,1-.51.55,1.1,0-.12.06.12,0-.12.06.12.35-1,.09,0L71,85.6l0,0,.12,0,0,0,.12,0-.53-1.25a1.34,1.34,0,0,0,.07-.18l1.06-.35-1.08-.54-.06-.14.55-1.1-.12,0,0,0-.12,0,0,0Z" transform="translate(-0.6 -0.98)"/><path class="cls-1" d="M22.74,55.75h.2c2.57,0,3.76-1.58,4.15-3.75h-.2C24.71,52.19,22.93,53.18,22.74,55.75Z" transform="translate(-0.6 -0.98)"/><path class="cls-1" d="M49.37,65.21,49,66.42l.12-.06,0,.06.12-.06,0,.06,1-.5h0L50.8,67l0-.12.06.12,0-.12L51,67,51.35,66l.1,0,1.12.48,0,0,.12,0,0,0,.12,0-.52-1.21a.87.87,0,0,0,0-.22l1.05-.35-1.09-.55a.86.86,0,0,0-.07-.1l.56-1.13-.12,0,0,0-.12,0,0,0-1.2.34L51,62.06l-.06.12,0-.12-.06.12,0-.12-.57,1.13-1-.34v0l-.11,0v0l-.11,0L49.37,64l0,.06-1.14.57,1.05.35A1.42,1.42,0,0,1,49.37,65.21Z" transform="translate(-0.6 -0.98)"/><path class="cls-1" d="M48.73,17.8h.1c2.77,0,4-1.58,4.35-3.76H53c-2.17.2-3.95,1.19-4.35,3.76a.34.34,0,0,1,.1,0Z" transform="translate(-0.6 -0.98)"/><path class="cls-1" d="M28.17,17.8h0a.33.33,0,0,1,.1,0c-.2-2.57-2-3.56-4.15-3.76h-.2c.39,2.17,1.58,3.76,4.15,3.76h.1Z" transform="translate(-0.6 -0.98)"/><path class="cls-1" d="M56.64,63.06l-.09,0a.09.09,0,0,0,0,0c-2,1-3.36,2.57-2.57,5.14l.09,0s0,0,0,0l.09,0s0,0,0,0c2.37-1,3-3,2.57-5.14l-.09,0A.07.07,0,0,1,56.64,63.06Z" transform="translate(-0.6 -0.98)"/><path class="cls-1" d="M48.23,34.21H48c.4,2.17,1.58,3.76,4.15,3.76h.2C52.19,35.39,50.41,34.4,48.23,34.21Z" transform="translate(-0.6 -0.98)"/><path class="cls-1" d="M75.51,61.68a.86.86,0,0,0-.2-.59.11.11,0,0,0-.08,0l0,0a.11.11,0,0,0-.08,0l0,0c-.2,0-.2.2-.2.59l-.33,9.45c-.41-1.74-1.62-2.95-4-3.12h-.2c0,2.77,1.78,3.76,4.15,3.95h0l-.31,8.82c-.38-2.2-2.06-3.09-4.27-3.27h-.2c.39,2.17,1.58,3.75,4.35,3.75h.11l-.1,3s0,.39-.59.79L40.48,101.9,40.23,87l5.05-3c.2,2.56,2,3.55,4.35,3.75h.2c-.4-2.18-1.58-3.76-4.35-3.76h-.19l23.9-14a1,1,0,0,0,.2-.59L69.26,66c2.72,0,3.89-1.6,4.28-3.75h-.2c-1.89.17-3.48.94-4.12,2.82L68.6,49.42c0-.2,0-.39-.2-.39v0a.17.17,0,0,0-.1,0v0a.17.17,0,0,0-.1,0v.39l-.54,13.06c-.51-2-2.1-2.81-4-3h-.2c.4,2.17,1.58,3.76,4.15,4v0h0l-.21,5s0,.2-.39.39L40.15,82.68,39.88,67l21.8-12.86a1,1,0,0,0,.2-.59l-.3-7.71h.1c2.57,0,3.75-1.58,4.15-3.76h-.2c-2,.18-3.68,1.07-4.07,3.25l-.12-3.26h.05c2.57,0,3.75-1.58,4.15-4l-.1,0v0l-.1,0v0a4.14,4.14,0,0,0-4,3.18l-.12-3.18a.2.2,0,0,0-.2-.2v0a.29.29,0,0,0-.1,0v0a.29.29,0,0,0-.1,0v.2l-.41,9.75a4.27,4.27,0,0,0-4.14-3h-.2c.39,2.36,1.57,3.93,4.3,4l-.15,3.56a.59.59,0,0,1-.2.39L39.81,63.29l-.27-15.84,1.2-.72c.41,2.13,1.59,3.68,4.33,3.68h.2c-.39-2.57-2-3.55-4.35-3.75h-.07l13.9-8.31c.2,0,.2-.4.2-.4L54.7,31h0c2.57,0,3.76-1.58,4.15-3.95l-.1,0v0l-.1,0v0a4.15,4.15,0,0,0-4,3.21l-.12-3.21h0c2.57,0,3.75-1.58,4.15-3.95l-.1,0v0l-.1,0v0a4.12,4.12,0,0,0-4.12,3.76h-.23v.2l-.39,10.08a.2.2,0,0,1-.2.2L39.48,44.69,39.25,31l10-5.72v-.2L49,21.55h0c2.77,0,3.95-1.58,4.35-3.76h-.2A4.07,4.07,0,0,0,49,20.87L48.83,18l0,.85L48.73,18l0,.85,0-.85-.09,1.41A4.13,4.13,0,0,0,44.48,16v0l-.1,0v0l-.1,0c.4,2.17,1.58,3.95,4.15,3.95h.07l-.19,3c-.45-2.19-2.08-3-4-3.2h-.2c.39,2.17,1.58,3.75,4.15,3.95v0h0l0,.6a.2.2,0,0,1-.2.2l-8.81,4.67-.48-28c0-.2,0-.2-.2-.2h-.2v.2l-.06,3.49c-.47-2.36-2-3.29-4.09-3.49H34c.39,2.17,1.58,3.76,4.15,3.76h.14l-.06,3.8A4.43,4.43,0,0,0,34,5.34v0l-.1,0v0l-.1,0a4.32,4.32,0,0,0,4.35,3.95h.06l-.07,4.08c-.23-2.5-2-3.48-4.14-3.67h-.2c.39,2.17,1.58,3.76,4.15,3.76h.19l-.07,4A4,4,0,0,0,34,13.86h-.2C34.2,16,35.39,17.62,38,17.81v0l.1,0v0h0L38,21.32c-.58-2.09-2.22-2.95-4.2-3.13h-.2C34,20.36,35.19,22,38,22h0l-.07,4.14c-.28-2.59-2-3.55-4.12-3.74h-.2c.39,2.17,1.58,3.76,4.15,3.95v0l.1,0v0h.07l0,3-9-4.78v-.2l0-.6h0v0c2.57-.2,3.76-1.78,4.15-3.95h-.2c-2,.18-3.58,1-4,3.2l-.2-3.21c2.68,0,3.85-1.61,4.24-4l-.1,0v0l-.1,0v0a4.46,4.46,0,0,0-4.1,3L28.47,18c0-.2,0-.2-.2-.2h-.2V18l-.15,2.65a3.81,3.81,0,0,0-4-2.85h-.2c.39,2.17,1.58,3.76,4.15,3.76h0l-.15,2.66c-.51-1.91-2.1-2.68-4-2.86h-.2c.4,2.17,1.58,3.76,4.15,3.76h0a.2.2,0,0,0,.2.2l1.71,1c-2.33.21-3.88,1.21-4.27,3.94l.1,0v0l.1,0v0a4.45,4.45,0,0,0,4.31-3.8l2.79,1.63c-2.17.2-3.94,1.19-4.14,3.75h.2c2.53,0,3.71-1.53,4.12-3.65l2.86,1.67h-.07c-2.18.2-3.95,1.19-4.15,3.75h.2c2.54,0,3.73-1.55,4.13-3.68l2.07,1.21L37.6,44.77,32.53,42.1h.08c2.77,0,4-1.78,4.35-4l-.1,0v0l-.1,0v0a4.46,4.46,0,0,0-4.34,3.9l-2.91-1.53h0v0l.1,0v0c2.57-.2,3.75-1.78,4.15-4h-.2c-2.16.2-3.93,1.18-4.15,3.91l-2.94-1.55c2.55-.21,3.73-1.78,4.12-3.95h-.2c-2.14.2-3.89,1.17-4.13,3.84l-2.78-1.47a.2.2,0,0,1-.2-.2h0c2.77,0,3.95-1.58,4.35-3.76h-.2c-2.12.18-3.6,1-4.18,3l-.37-9.33a.2.2,0,0,0-.2-.2v0h0a4.29,4.29,0,0,0-4.31-3.77h-.2c.39,2.37,1.58,3.95,4.35,3.95h0l-.15,2.66c-.5-1.91-2.1-2.69-4-2.86h-.2c.39,2.17,1.58,3.76,4.15,3.76h0l-.15,2.79c-.51-2-2.1-2.81-4-3H18c.4,2.17,1.58,3.75,4.15,3.95L22,36.74c-.66-1.67-2.06-2.39-4-2.55h-.2c.39,2.12,1.53,3.66,4.15,3.74h0s0,.4.2.4l2,1.2h0c-2.37.2-4,1.19-4.35,3.95H20a4.3,4.3,0,0,0,4.32-3.85l2.82,1.69h0c-2.17.2-3.95,1.19-4.35,3.75h.2c2.73,0,3.91-1.54,4.33-3.66l2.83,1.69h0c-2.17.2-4,1.18-4.15,3.76h.2c2.53,0,3.72-1.54,4.13-3.67L33,44.89H33c-2.17.2-3.95,1.19-4.15,3.76H29c2.54,0,3.72-1.54,4.13-3.67L36,46.68h-.07c-2.17.2-3.95,1.18-4.15,3.75H32c2.54,0,3.72-1.55,4.13-3.68l1.4.83L37.24,63.4l-5.18-2.71h0v0l.1,0v0c2.57-.2,3.76-1.78,4.15-4h-.2C34,57,32.21,57.94,32,60.66l-2.94-1.54a4.48,4.48,0,0,0,4.32-3.95h-.2c-2.33.19-3.9,1.17-4.32,3.84l-3.19-1.67h.2c2.77,0,3.95-1.58,4.35-3.76H30c-2.17.2-3.95,1.19-4.35,3.76l-6.06-3.17h.14c2.57,0,3.75-1.58,4.15-3.76h-.2c-2.16.2-3.93,1.18-4.14,3.72L17,52.79a1,1,0,0,1-.28-.2h.08v0c2.57-.2,3.76-1.78,4.15-4h-.2c-2.14.19-3.88,1.16-4.13,3.82l0-.06-.1-3.56h.1c2.57,0,3.76-1.58,4.15-4l-.1,0v0l-.1,0v0a4.14,4.14,0,0,0-4.07,3.42l-.28-10.14L16,38l-.05.05,0,0c-.5-2.46-2.2-3.39-4.27-3.57h-.2a4.3,4.3,0,0,0,4.15,3.92l-.07,2.54a4.2,4.2,0,0,0-3.88-2.71v0l-.1,0v0l-.1,0c.39,2.34,1.55,3.9,4.05,3.94l-.07,2.8c-.53-1.85-2.1-2.62-4-2.79h-.2c.39,2.17,1.58,3.76,4.15,3.76h0l-.07,2.89a4.28,4.28,0,0,0-4.08-2.88H11c.39,2.34,1.56,3.9,4.25,4l-.07,2.79c-.53-1.85-2.1-2.62-4-2.79H11c.39,2.18,1.58,3.76,4.15,3.76h0a1,1,0,0,0,.2.59l2,1.19h0c-2.37.2-4,1.19-4.35,3.76h.2a4.15,4.15,0,0,0,4.33-3.66L20.11,57A4.26,4.26,0,0,0,16,60.91h.2c2.47,0,3.84-1.47,4.29-3.7l2.61,1.55A4.26,4.26,0,0,0,19,62.68h.2c2.48,0,3.84-1.48,4.29-3.71l2.62,1.56c-2.26.24-3.77,1.24-4.15,3.93l.1,0v0l.1,0v0a4.44,4.44,0,0,0,4.29-3.73L32,64.08c-2.28.23-3.81,1.22-4.2,3.74H28a4.12,4.12,0,0,0,4.3-3.56l4.85,2.89L37,82.8,9.9,68.8c-.4-.2-.4-.39-.4-.39l-.6-19c0-.2,0-.39-.2-.39l0,0L8.6,49l0,0L8.5,49a.7.7,0,0,0-.2.39l-.13,4.49a4.15,4.15,0,0,0-4-3.1v0l-.1,0v0l-.1,0c.39,2.37,1.58,3.95,4.15,3.95h0l-.09,2.91A4.29,4.29,0,0,0,4,54.75h-.2A4.31,4.31,0,0,0,8,58.69l-.2,6.81c-.39-2.17-2-3-4.06-3.24h-.2C4,64.43,5.15,66,7.72,66h.1l-.1,3.36a.43.43,0,0,0,.2.59l29,17.14L36.63,102,3.37,85A1.24,1.24,0,0,1,3,84.21l-.8-22.53a.86.86,0,0,0-.2-.59.11.11,0,0,0-.08,0l0,0a.11.11,0,0,0-.08,0l0,0c-.2,0-.2.2-.2.59L.6,85.59s0,.59.39.79l35.54,20.88-.16,9.56-3.76,1.78v.4H44.47v-.4l-3.76-1.78-.17-9.67L76.09,86.38c.39-.2.2-.79.2-.79ZM61.58,45.86ZM32.63,28.09h0ZM16.51,48.82ZM7.81,66Z" transform="translate(-0.6 -0.98)"/><path class="cls-1" d="M47.64,74.92l.4-1.38-.12.06,0-.06-.12.06,0-.06-1,.51h0L46.25,73l0,.12L46.15,73l0,.12L46.05,73l-.34,1-.1,0-1.13-.48,0,0-.12,0,0,0-.12,0,.52,1.2a1.74,1.74,0,0,0,0,.22l-1.06.35,1.08.54.06.14-.55,1.1.12,0,0,0,.12,0,0,0,1.09-.31.14,0,.35,1,.06-.12,0,.12.06-.12,0,.12.56-1.13,1,.34v0l.11,0v0l.11,0-.4-1.19,1.19-.59Z" transform="translate(-0.6 -0.98)"/><path class="cls-1" d="M57.92,86.78l-1.25-.36a1.74,1.74,0,0,0-.05-.22l.52-1.2-.13.06L57,85l-.13.06,0-.06-1,.51h0l-.55-1.09-.05.1,0-.1-.05.1,0-.1L54.6,85.5a0,0,0,0,0,0,0l-1-.51,0,.06L53.47,85l0,.06L53.37,85l.4,1.38-1.19.39,1.19.59-.4,1.19.11,0v0l.11,0v0l1-.34.56,1.13,0-.1.05.1,0-.1.05.1.57-1.13,1,.34,0,0,.12,0,0,0,.12,0-.55-1.1.06-.13Z" transform="translate(-0.6 -0.98)"/><polygon class="cls-1" points="59.1 100.03 59.5 98.65 59.38 98.71 59.4 98.65 59.28 98.71 59.3 98.65 58.27 99.16 57.72 98.06 57.67 98.16 57.62 98.06 57.57 98.16 57.52 98.06 56.96 99.16 55.94 98.65 55.95 98.71 55.84 98.65 55.85 98.71 55.74 98.65 56.13 100.03 54.95 100.43 56.13 101.02 55.74 102.21 55.85 102.17 55.84 102.21 55.95 102.17 55.94 102.21 56.95 101.87 57.52 103 57.57 102.9 57.62 103 57.67 102.9 57.72 103 58.28 101.87 59.3 102.21 59.28 102.17 59.4 102.21 59.38 102.17 59.5 102.21 59.1 101.02 60.28 100.43 59.1 100.03"/><path class="cls-1" d="M54.47,102.84a.09.09,0,0,0,0,0l-.09,0a.09.09,0,0,0,0,0c-2.17,1-3.36,2.57-2.57,5.14l.09-.05s0,0,0,.05l.09-.05s0,0,0,.05c2.37-1,3-3,2.57-5.14Z" transform="translate(-0.6 -0.98)"/><path class="cls-1" d="M67.21,92.71h0a.33.33,0,0,1-.1,0H67c0,2.57,1.78,3.75,4.15,4h.2C71.16,94.49,70,92.71,67.21,92.71Z" transform="translate(-0.6 -0.98)"/><path class="cls-1" d="M49.23,72H49a4.17,4.17,0,0,0,4.35,3.76h.2C53.18,73.14,51.6,72.16,49.23,72Z" transform="translate(-0.6 -0.98)"/><path class="cls-1" d="M59.9,77.49l-.09.05a.09.09,0,0,0,0-.05l-.09.05a.09.09,0,0,0,0-.05c-2,1-3.36,2.57-2.57,5.14l.09,0a.09.09,0,0,0,0,0l.09,0s0,0,0,0C59.7,81.64,60.29,79.67,59.9,77.49Z" transform="translate(-0.6 -0.98)"/><path class="cls-1" d="M45.07,93.3v0l-.1,0v0l-.1,0c.39,2.37,1.58,4,4.15,4h.2C49,94.69,47.25,93.5,45.07,93.3Z" transform="translate(-0.6 -0.98)"/></svg>