<?xml version="1.0" encoding="utf-8"?>
<!-- Generator: Adobe Illustrator 23.1.0, SVG Export Plug-In . SVG Version: 6.00 Build 0)  -->
<svg version="1.1" id="Layer_1" xmlns="http://www.w3.org/2000/svg" xmlns:xlink="http://www.w3.org/1999/xlink" x="0px" y="0px"
	 viewBox="0 0 480 120" style="enable-background:new 0 0 480 120;" xml:space="preserve">
<style type="text/css">
	.st0{fill-rule:evenodd;clip-rule:evenodd;fill:#EEEEEE;}
</style>
<g>
	<path class="st0" d="M70.28,82.35c-0.05-0.02-0.09-0.04-0.14-0.05l-0.35-1.05l-0.06,0.12l-0.04-0.12l-0.06,0.12l-0.04-0.12
		l-0.56,1.13l-1.02-0.34l0.01,0.04l-0.11-0.04l0.01,0.04l-0.11-0.04l0.39,1.19l-1.19,0.59l1.19,0.4l-0.39,1.38l0.12-0.06l-0.02,0.06
		l0.12-0.06l-0.02,0.06l1.03-0.51l0.55,1.1l0.04-0.12l0.06,0.12l0.04-0.12l0.06,0.12l0.35-1.05c0.03-0.01,0.06-0.02,0.09-0.03
		l1.14,0.49l-0.02-0.05l0.12,0.05l-0.02-0.05l0.12,0.05l-0.53-1.25c0.03-0.06,0.05-0.12,0.07-0.18l1.06-0.35l-1.08-0.54
		c-0.02-0.05-0.04-0.1-0.06-0.14l0.55-1.1l-0.12,0.03l0.02-0.03l-0.12,0.03l0.02-0.03L70.28,82.35z"/>
	<path class="st0" d="M23.14,55.75c0.04,0,0.07-0.01,0.1-0.01c0,0,0,0.01,0,0.01c0.04,0,0.07-0.01,0.1-0.01c0,0,0,0.01,0,0.01
		c2.57,0,3.76-1.58,4.15-3.75c-0.04,0-0.07,0.01-0.1,0.01c0-0.01,0-0.01,0-0.01c-0.04,0-0.07,0.01-0.1,0.01c0-0.01,0-0.01,0-0.01
		C25.11,52.19,23.33,53.18,23.14,55.75z"/>
	<path class="st0" d="M49.77,65.21l-0.35,1.21l0.12-0.06l-0.02,0.06l0.12-0.06l-0.02,0.06l1-0.5c0.01,0,0.02,0.01,0.04,0.01
		l0.54,1.08l0.04-0.12l0.06,0.12l0.04-0.12l0.06,0.12l0.35-1.06c0.03-0.01,0.07-0.01,0.1-0.02l1.12,0.48l-0.02-0.05l0.12,0.05
		l-0.02-0.05l0.12,0.05l-0.52-1.21c0.03-0.07,0.04-0.15,0.05-0.22l1.05-0.35l-1.09-0.55c-0.02-0.04-0.05-0.07-0.07-0.1l0.56-1.13
		l-0.12,0.03l0.02-0.03l-0.12,0.03l0.02-0.03l-1.2,0.34l-0.38-1.13l-0.06,0.12l-0.04-0.12l-0.06,0.12l-0.04-0.12l-0.57,1.13
		l-1.01-0.34l0.01,0.04l-0.11-0.04l0.01,0.04l-0.11-0.04l0.38,1.15c-0.01,0.02-0.03,0.04-0.04,0.06l-1.14,0.57l1.05,0.35
		C49.71,65.07,49.73,65.14,49.77,65.21z"/>
	<path class="st0" d="M136.03,38.22h-35.29H100v1.67h0.74h5.76v40h-5.76H100v1.68h0.74h20.42h0.74V79.9h-0.74h-5.55V60.21
		c0.28-0.01,0.53-0.01,0.79-0.01c5.72,0.07,7.74,1.84,8.31,8.6h0.74h0.94h0.74V50.58h-0.74h-0.94h-0.74
		c-0.4,6.62-3.5,7.86-9.11,7.95V39.89h6.18c2.72,0,5.24,0.21,6.7,0.84c4.4,1.88,5.23,6.49,6.28,10.68h0.74h0.94h0.74l-0.42-13.19
		H136.03z"/>
	<path class="st0" d="M153.1,48.69c-0.13,0-0.25,0.02-0.37,0.02c-0.12,0-0.24-0.02-0.36-0.02c-8.17,0-15.08,7.96-15.08,15.92
		c0,8.8,5.45,17.8,15.08,17.8c0.13,0,0.24-0.02,0.37-0.02c0.12,0,0.24,0.02,0.37,0.02c9.64,0,15.08-9.01,15.08-17.8
		C168.18,56.65,161.06,48.69,153.1,48.69z M145.56,75.5c-0.42-1.68-0.42-3.56-0.42-5.44V59.58c0-1.88,0.21-3.35,0.63-4.81
		c0.81-2.84,2.82-4.88,6.95-5c3.94,0.12,5.95,2.16,6.76,5c0.63,1.47,0.84,2.93,0.84,4.81v10.48c0,1.88-0.21,3.77-0.63,5.44
		c-0.82,3.26-2.63,5.52-6.96,5.64C148.4,81.02,146.58,78.76,145.56,75.5z"/>
	<path class="st0" d="M279.4,55.6c-1.47-0.63-3.14-1.05-4.4-1.47c-1.05-0.21-2.31-0.84-3.98-1.26c-3.98-1.05-7.54-1.46-7.54-6.49
		c0-4.26,3.74-7.34,7.78-7.52c6.28,0.19,10.13,5.33,10.75,11.29h0.74h1.36h0.74V38.01h-0.74h-0.31h-0.74l-2.2,2.21
		c-2.77-2.06-5.41-2.83-9-2.83c-0.1,0-0.19,0.01-0.29,0.01c-0.15,0-0.29-0.01-0.45-0.01c-6.91,0-11.94,5.03-11.94,11.73
		c0,6.28,3.14,10.68,9.01,12.57c1.47,0.42,2.72,0.84,3.98,1.26c4.82,1.67,10.26,2.93,10.26,9.01c0,5.1-4.37,8.8-9.25,8.99
		c-6.69-0.19-10.35-5.75-11.59-11.92h-0.74h-1.15h-0.74v12.99h0.74h0.31h0.74l2.78-2.41c2.16,1.9,5.87,3.03,8.85,3.03
		c0.13,0,0.25-0.01,0.38-0.02c0.12,0,0.24,0.02,0.36,0.02c8.38,0,13.61-6.07,13.61-14.24C286.73,62.51,284.84,58.32,279.4,55.6z"/>
	<path class="st0" d="M375.11,62.3c-1.05-0.42-2.3-0.84-3.35-1.05c-0.84-0.42-1.67-0.63-2.93-1.05c-2.93-0.84-5.65-1.26-5.65-4.82
		c0-3.21,2.69-5.45,5.68-5.64c4.61,0.19,7.42,4.07,8.03,8.57h0.74h0.73h0.74v-9.21h-0.74h-0.1h-0.74l-1.57,1.57
		c-1.95-1.43-3.95-2-6.49-2c-0.1,0-0.19,0.01-0.29,0.01c-0.15,0-0.29-0.01-0.45-0.01c-5.03,0-8.8,3.77-8.8,8.8
		c0,4.61,2.09,7.96,6.7,9.22c0.84,0.42,1.89,0.63,2.93,1.05c3.56,1.25,7.54,2.09,7.54,6.7c0,3.64-3.13,6.5-6.75,6.69
		c-5-0.19-7.62-4.28-8.65-8.78h-0.74h-0.52h-0.74v9.63h0.74h0.1h0.74l1.77-1.78c1.72,1.3,4.37,2.19,6.5,2.19
		c0.14,0,0.26-0.01,0.4-0.02c0.11,0,0.23,0.02,0.34,0.02c6.28,0,10.26-4.61,10.26-10.68C380.56,67.33,379.09,64.19,375.11,62.3z"/>
	<path class="st0" d="M402.13,48.69c-0.13,0-0.25,0.02-0.37,0.02c-0.12,0-0.24-0.02-0.36-0.02c-8.17,0-15.08,7.96-15.08,15.92
		c0,8.8,5.44,17.8,15.08,17.8c0.12,0,0.24-0.02,0.36-0.02c0.13,0,0.24,0.02,0.37,0.02c9.42,0,14.87-9.01,14.87-17.8
		C417,56.65,410.09,48.69,402.13,48.69z M394.59,75.5c-0.42-1.68-0.42-3.56-0.42-5.44V59.58c0-1.88,0.21-3.35,0.63-4.81
		c0.81-2.84,2.82-4.88,6.95-5c3.92,0.12,5.75,2.16,6.76,5c0.42,1.47,0.63,2.93,0.63,4.81v10.48c0,1.88,0,3.77-0.42,5.44
		c-0.82,3.26-2.63,5.52-6.96,5.64C397.42,81.02,395.41,78.76,394.59,75.5z"/>
	<path class="st0" d="M473.55,62.3c-1.05-0.42-2.3-0.84-3.14-1.05c-0.84-0.42-1.88-0.63-3.14-1.05c-2.93-0.84-5.45-1.26-5.45-4.82
		c0-3.21,2.69-5.45,5.68-5.64c4.61,0.19,7.42,4.07,7.82,8.57h0.74h0.94h0.74v-9.21h-0.74h-0.1h-0.74l-1.59,1.59
		c-2.11-1.44-3.94-2.01-6.69-2.01c-0.1,0-0.19,0.01-0.28,0.01c-0.15,0-0.3-0.01-0.46-0.01c-5.03,0-8.8,3.77-8.8,8.8
		c0,4.61,2.3,7.96,6.7,9.22c1.05,0.42,2.09,0.63,2.93,1.05c3.56,1.25,7.75,2.09,7.75,6.7c0,3.64-3.32,6.5-6.95,6.69
		c-4.8-0.19-7.42-4.28-8.45-8.78h-0.74h-0.73h-0.74v9.63h0.74h0.1h0.74l1.97-1.79c1.71,1.3,4.38,2.21,6.51,2.21
		c0.13,0,0.26-0.01,0.39-0.02c0.11,0,0.23,0.02,0.35,0.02c6.07,0,10.05-4.61,10.05-10.68C479,67.33,477.53,64.19,473.55,62.3z"/>
	<path class="st0" d="M194.36,49.32h-0.74v1.25h0.74h3.87v21.36c0,5.11-2.21,8.62-7.58,8.78c-8.41-0.16-7.81-5.95-7.81-12.55V50.58
		h4.08h0.74v-1.25h-0.74h-14.97h-0.74v1.25h0.74h4.08v19.06c0,5.45,0.84,8.59,2.93,10.05c2.09,1.68,5.24,2.72,8.59,2.72
		c0.16,0,0.3-0.01,0.45-0.01c0.1,0,0.19,0.01,0.29,0.01c4.4,0,7.33-0.84,9.43-2.52c1.89-1.88,2.93-4.19,2.93-9V50.58h4.08h0.74
		v-1.25h-0.74H194.36z"/>
	<path class="st0" d="M239.7,80.52c-0.59,0.11-1.11,0.17-1.57,0.19c-2.37-0.12-2.51-1.58-2.51-2.91c0-7.96-1.68-11.94-9.21-13.2
		c4.61-0.63,10.26-2.51,10.26-7.96c0-6.7-6.28-7.33-11.52-7.33h-0.74h-15.39h-0.74v1.25h0.74h4.08v29.74h-4.08h-0.74v1.26h0.74H224
		h0.74v-1.26H224h-4.08V65.03h1.99c1.46,0,2.93,0.63,4.4,1.67c1.26,1.05,1.88,4.19,1.88,8.17c0,4.82,2.52,7.33,7.54,7.33
		c0.11,0,0.22-0.01,0.33-0.01c0.14,0,0.27,0.01,0.41,0.01c1.26,0,2.72-0.21,3.98-0.63v-1.05c-0.26,0.05-0.5,0.08-0.74,0.11V80.52z
		 M219.91,63.77V50.58h3.45c4.4,0,5.87,1.47,5.87,6.7c0,4.4-1.68,6.49-6.08,6.49H219.91z"/>
	<path class="st0" d="M319.4,71.31h-0.74c-1.05,5.45-2.51,9-8.8,9h-5.97V65.66c0.21-0.01,0.4-0.01,0.6-0.01
		c4.19,0.07,5.61,1.54,5.99,6.3h0.74h0.52h0.74V58.53h-0.74h-0.52h-0.74c-0.2,4.95-2.46,5.78-6.59,5.86V50.58h4.29
		c1.68,0,2.93,0,4.19,0.42c2.51,0.63,4.4,2.51,5.44,7.12h0.74h0.52h0.74l-0.21-8.79h-0.74H292.8h-0.74v1.25h0.74h4.08v29.74h-4.08
		h-0.74v1.26h0.74h26.7h0.74l0.42-10.26h-0.74H319.4z"/>
	<path class="st0" d="M352.28,80.32l-10.89-31.63h-0.74h-0.94h-0.74l-11.52,31.63h-3.24h-0.74v1.26h0.74h9.53h0.74v-1.26h-0.74
		h-4.08l2.93-8.38h9.74l2.93,8.38h-4.29h-0.74v1.26h0.74h14.55h0.74v-1.26h-0.74H352.28z M333.01,70.68l4.64-12.55l4.05,12.55
		H333.01z"/>
	<polygon class="st0" points="442.98,49.32 442.24,49.32 442.24,50.58 442.98,50.58 446.85,50.58 446.85,69.38 433.34,49.32 
		432.6,49.32 420.98,49.32 420.25,49.32 420.25,50.58 420.98,50.58 424.86,50.58 424.86,80.32 420.98,80.32 420.25,80.32 
		420.25,81.58 420.98,81.58 431.14,81.58 431.87,81.58 431.87,80.32 431.14,80.32 427.27,80.32 427.27,52.73 446.85,82.2 
		447.58,82.2 448.31,82.2 449.05,82.2 449.05,50.58 453.13,50.58 453.87,50.58 453.87,49.32 453.13,49.32 	"/>
	<path class="st0" d="M49.13,17.8c0.04,0,0.07-0.01,0.1-0.01c0,0,0,0,0,0.01c2.77,0,3.95-1.58,4.35-3.76c-0.04,0-0.07,0.01-0.1,0.01
		c0-0.01,0-0.01,0-0.01c-0.04,0-0.07,0.01-0.1,0.01c0-0.01,0-0.01,0-0.01c-2.17,0.2-3.95,1.19-4.35,3.76
		C49.07,17.8,49.09,17.79,49.13,17.8C49.13,17.8,49.13,17.8,49.13,17.8z"/>
	<path class="st0" d="M28.57,17.8C28.57,17.8,28.57,17.8,28.57,17.8c0.03-0.01,0.06,0,0.1,0c-0.2-2.57-1.97-3.56-4.15-3.76
		c0,0.01,0,0.01,0,0.01c-0.04,0-0.07-0.01-0.1-0.01c0,0.01,0,0.01,0,0.01c-0.04,0-0.07-0.01-0.1-0.01c0.39,2.17,1.58,3.76,4.15,3.76
		c0,0,0-0.01,0-0.01C28.51,17.79,28.54,17.8,28.57,17.8z"/>
	<path class="st0" d="M57.04,63.06c-0.03,0.02-0.06,0.04-0.09,0.05c0-0.02,0-0.03-0.01-0.05c-1.98,0.99-3.36,2.57-2.57,5.14
		c0.03-0.01,0.06-0.03,0.09-0.05c0,0.02,0.01,0.03,0.01,0.05c0.03-0.01,0.06-0.03,0.09-0.05c0,0.02,0.01,0.03,0.01,0.05
		c2.37-0.99,2.96-2.97,2.57-5.14c-0.03,0.02-0.06,0.04-0.09,0.05C57.04,63.1,57.04,63.08,57.04,63.06z"/>
	<path class="st0" d="M48.63,34.21c0,0.01,0,0.01,0,0.01c-0.04,0-0.07-0.01-0.1-0.01c0,0.01,0,0.01,0,0.01
		c-0.04,0-0.07-0.01-0.1-0.01c0.4,2.17,1.58,3.76,4.15,3.76c0,0,0-0.01,0-0.01c0.04,0,0.07,0.01,0.1,0.01c0,0,0-0.01,0-0.01
		c0.04,0,0.07,0.01,0.1,0.01C52.59,35.39,50.81,34.4,48.63,34.21z"/>
	<path class="st0" d="M75.91,61.68c0-0.39-0.2-0.59-0.2-0.59c-0.03,0-0.06,0.01-0.08,0.03c-0.01-0.01-0.02-0.03-0.02-0.03
		c-0.03,0-0.06,0.01-0.08,0.03c-0.01-0.01-0.02-0.03-0.02-0.03c-0.2,0-0.2,0.2-0.2,0.59l-0.33,9.45c-0.41-1.74-1.62-2.95-4.02-3.12
		c0,0.01,0,0.01,0,0.01c-0.04,0-0.06-0.01-0.1-0.01c0,0.01,0,0.01,0,0.01c-0.04,0-0.06-0.01-0.1-0.01c0,2.77,1.78,3.76,4.15,3.95
		c0,0,0-0.01,0-0.01c0.01,0,0.02,0,0.04,0l-0.31,8.82c-0.38-2.2-2.06-3.09-4.27-3.27c0,0,0,0.01,0,0.01c-0.04,0-0.07-0.01-0.1-0.01
		c0,0,0,0.01,0,0.01c-0.04,0-0.07-0.01-0.1-0.01c0.39,2.17,1.58,3.75,4.35,3.75c0,0,0,0,0-0.01c0.04,0,0.06,0.01,0.1,0.01
		c0,0,0,0,0-0.01c0,0,0,0,0.01,0l-0.1,2.97c0,0,0,0.39-0.59,0.79l-33.06,16.9l-0.25-14.92l5.05-2.97c0.2,2.56,1.98,3.55,4.35,3.75
		c0,0,0-0.01,0-0.01c0.04,0,0.07,0.01,0.1,0.01c0,0,0-0.01,0-0.01c0.04,0,0.07,0.01,0.1,0.01c-0.4-2.18-1.58-3.76-4.35-3.76
		c0,0,0,0,0,0.01c-0.04,0-0.06-0.01-0.1-0.01c0,0,0,0,0,0.01c-0.03,0-0.06-0.01-0.09-0.01l23.9-14.03c0.2-0.2,0.2-0.59,0.2-0.59
		l-0.13-3.36c2.72-0.03,3.89-1.6,4.28-3.75c-0.04,0-0.07,0.01-0.1,0.01c0-0.01,0-0.01,0-0.01c-0.04,0-0.07,0.01-0.1,0.01
		c0-0.01,0-0.01,0-0.01c-1.89,0.17-3.48,0.94-4.12,2.82l-0.62-15.67c0-0.2,0-0.39-0.2-0.39c0,0,0,0.01,0,0.03
		c-0.03-0.02-0.06-0.03-0.1-0.03c0,0,0,0.01,0,0.03c-0.03-0.02-0.06-0.03-0.1-0.03c0,0,0,0.2,0,0.39l-0.54,13.06
		c-0.51-2.03-2.1-2.81-4-2.98c0,0.01,0,0.01,0,0.01c-0.04,0-0.07-0.01-0.1-0.01c0,0.01,0,0.01,0,0.01c-0.04,0-0.07-0.01-0.1-0.01
		c0.4,2.17,1.58,3.76,4.15,3.95c0-0.01,0-0.01,0-0.02c0,0,0.01,0,0.01,0l-0.21,4.96c0,0,0,0.2-0.39,0.39l-26.87,13.9l-0.27-15.67
		l21.8-12.86c0.2-0.2,0.2-0.59,0.2-0.59l-0.3-7.71c0.04,0,0.07-0.01,0.1-0.01c0,0,0,0.01,0,0.01c2.57,0,3.75-1.58,4.15-3.76
		c-0.04,0-0.07,0.01-0.1,0.01c0-0.01,0-0.01,0-0.01c-0.04,0-0.07,0.01-0.1,0.01c0-0.01,0-0.01,0-0.01
		c-2.02,0.18-3.68,1.07-4.07,3.25l-0.12-3.26c0.02,0,0.03,0,0.05,0c0,0,0,0.01,0,0.01c2.57,0,3.75-1.58,4.15-3.95
		c-0.04,0-0.07,0.01-0.1,0.02c0-0.01,0-0.01,0-0.02c-0.04,0-0.07,0.01-0.1,0.02c0-0.01,0-0.01,0-0.02
		c-1.94,0.18-3.56,1.15-4.02,3.18l-0.12-3.18c0,0,0-0.2-0.2-0.2v0.03c-0.03-0.01-0.06-0.03-0.1-0.03v0.03
		c-0.03-0.01-0.06-0.03-0.1-0.03v0.2l-0.41,9.75c-0.61-1.93-2.07-2.86-4.14-3.03c0,0.01,0,0.01,0,0.01c-0.04,0-0.07-0.01-0.1-0.01
		c0,0.01,0,0.01,0,0.01c-0.04,0-0.07-0.01-0.1-0.01c0.39,2.36,1.57,3.93,4.3,3.95l-0.15,3.56c0,0,0,0.2-0.2,0.39L40.21,63.29
		l-0.27-15.84l1.2-0.72c0.41,2.13,1.59,3.68,4.33,3.68c0,0,0,0,0-0.01c0.04,0,0.07,0.01,0.1,0.01c0,0,0,0,0-0.01
		c0.04,0,0.07,0.01,0.1,0.01c-0.39-2.57-1.98-3.55-4.35-3.75c0,0,0,0.01,0,0.01c-0.02,0-0.05-0.01-0.07-0.01l13.9-8.31
		c0.2,0,0.2-0.4,0.2-0.4l-0.25-6.92c0.02,0,0.04,0,0.05,0c0,0,0,0.01,0,0.01c2.57,0,3.76-1.58,4.15-3.95c-0.04,0-0.07,0.01-0.1,0.02
		c0-0.01,0-0.01,0-0.02c-0.04,0-0.07,0.01-0.1,0.02c0-0.01,0-0.01,0-0.02c-1.95,0.18-3.57,1.16-4.03,3.21l-0.12-3.21c0,0,0,0,0-0.01
		c0,0,0,0,0,0c0,0,0,0.01,0,0.01c2.57,0,3.75-1.58,4.15-3.95c-0.04,0-0.07,0.01-0.1,0.02c0-0.01,0-0.01,0-0.02
		c-0.04,0-0.07,0.01-0.1,0.02c0-0.01,0-0.01,0-0.02c-2.12,0.19-3.84,1.33-4.12,3.76c-0.01,0-0.02,0-0.03,0c0,0,0,0,0,0
		c-0.03,0-0.06,0-0.1,0c0,0,0,0,0,0c-0.03,0-0.06,0-0.1,0c0,0,0,0,0,0.2l-0.39,10.08c0,0,0,0.2-0.2,0.2l-14.08,7.31l-0.23-13.65
		l9.97-5.72v-0.2l-0.2-3.57c0,0,0,0,0,0c0,0,0,0,0,0.01c2.77,0,3.95-1.58,4.35-3.76c-0.03,0-0.07,0.01-0.1,0.01c0,0,0,0,0-0.01
		c-0.03,0-0.07,0.01-0.1,0.01c0,0,0,0,0-0.01c-1.96,0-3.6,0.98-4.19,3.07L49.23,18l-0.05,0.85L49.13,18l-0.05,0.85L49.03,18
		l-0.09,1.41c-0.4-2.17-2.06-3.21-4.06-3.39c0,0.01,0,0.01,0,0.02c-0.04,0-0.07-0.01-0.1-0.02c0,0.01,0,0.01,0,0.02
		c-0.04,0-0.07-0.01-0.1-0.02c0.4,2.17,1.58,3.95,4.15,3.95c0,0,0-0.01,0-0.01c0.03,0,0.05,0.01,0.07,0.01l-0.19,3
		c-0.45-2.19-2.08-3.02-4.03-3.2c0,0.01,0,0.01,0,0.01c-0.04,0-0.07-0.01-0.1-0.01c0,0.01,0,0.01,0,0.01c-0.04,0-0.07-0.01-0.1-0.01
		c0.39,2.17,1.58,3.75,4.15,3.95c0-0.01,0-0.01,0-0.02c0.01,0,0.03,0,0.04,0.01l-0.04,0.6c0,0,0,0.2-0.2,0.2l-8.81,4.67l-0.48-28
		c0-0.2,0-0.2-0.2-0.2c0,0,0,0,0,0c-0.03,0-0.06,0-0.1,0c0,0,0,0,0,0c-0.03,0-0.06,0-0.1,0c0,0,0,0,0,0.2l-0.06,3.49
		c-0.47-2.36-2-3.29-4.09-3.49c0,0.01,0,0.01,0,0.01c-0.04,0-0.07-0.01-0.1-0.01c0,0.01,0,0.01,0,0.01c-0.04,0-0.07-0.01-0.1-0.01
		c0.39,2.17,1.58,3.76,4.15,3.76c0,0,0-0.01,0-0.01c0.04,0,0.07,0.01,0.1,0.01c0,0,0-0.01,0-0.01c0.01,0,0.02,0,0.04,0l-0.06,3.8
		c-0.56-2.17-2.21-3.21-4.21-3.39c0,0.01,0,0.01,0,0.02c-0.04,0-0.07-0.01-0.1-0.02c0,0.01,0,0.01,0,0.02
		c-0.04,0-0.07-0.01-0.1-0.02c0.39,2.17,1.58,3.76,4.35,3.95c0-0.01,0-0.01,0-0.01c0.02,0,0.04,0.01,0.06,0.01l-0.07,4.08
		c-0.23-2.5-1.99-3.48-4.14-3.67c0,0.01,0,0.01,0,0.01c-0.04,0-0.07-0.01-0.1-0.01c0,0.01,0,0.01,0,0.01c-0.04,0-0.07-0.01-0.1-0.01
		c0.39,2.17,1.58,3.76,4.15,3.76c0,0,0-0.01,0-0.01c0.04,0,0.07,0.01,0.1,0.01c0,0,0-0.01,0-0.01c0.03,0,0.06,0.01,0.09,0.01
		l-0.07,3.96c-0.49-2.46-2-3.38-4.07-3.56c0,0.01,0,0.01,0,0.01c-0.04,0-0.07-0.01-0.1-0.01c0,0.01,0,0.01,0,0.01
		c-0.04,0-0.07-0.01-0.1-0.01c0.39,2.17,1.58,3.76,4.15,3.95c0-0.01,0-0.01,0-0.02c0.04,0,0.07,0.01,0.1,0.02c0-0.01,0-0.01,0-0.02
		c0.01,0,0.01,0,0.01,0l-0.06,3.53c-0.58-2.09-2.22-2.95-4.2-3.13c0,0.01,0,0.01,0,0.01c-0.04,0-0.07-0.01-0.1-0.01
		c0,0.01,0,0.01,0,0.01c-0.04,0-0.07-0.01-0.1-0.01c0.39,2.17,1.58,3.76,4.35,3.76c0,0,0,0,0-0.01c0.01,0,0.03,0,0.04,0l-0.07,4.14
		c-0.28-2.59-2-3.55-4.12-3.74c0,0.01,0,0.01,0,0.01c-0.04,0-0.07-0.01-0.1-0.01c0,0.01,0,0.01,0,0.01c-0.04,0-0.07-0.01-0.1-0.01
		c0.39,2.17,1.58,3.76,4.15,3.95c0-0.01,0-0.01,0-0.02c0.04,0,0.07,0.01,0.1,0.02c0-0.01,0-0.01,0-0.02c0.02,0,0.04,0.01,0.07,0.01
		l-0.05,3.01l-9-4.78v-0.2l-0.04-0.6c0.01,0,0.03,0,0.04-0.01c0,0.01,0,0.01,0,0.02c2.57-0.2,3.76-1.78,4.15-3.95
		c-0.04,0-0.07,0.01-0.1,0.01c0-0.01,0-0.01,0-0.01c-0.04,0-0.07,0.01-0.1,0.01c0-0.01,0-0.01,0-0.01c-1.96,0.18-3.58,1.01-4.03,3.2
		l-0.2-3.21c2.68-0.04,3.85-1.61,4.24-3.95c-0.04,0-0.07,0.01-0.1,0.02c0-0.01,0-0.01,0-0.02c-0.04,0-0.07,0.01-0.1,0.02
		c0-0.01,0-0.01,0-0.02c-1.87,0.17-3.44,1.08-4.1,2.96L28.87,18c0-0.2,0-0.2-0.2-0.2c0,0,0,0,0,0c-0.03,0-0.06,0-0.1,0c0,0,0,0,0,0
		c-0.03,0-0.06,0-0.1,0c0,0,0,0,0,0.2l-0.15,2.65c-0.5-1.94-2.1-2.85-4-2.85c0,0,0,0,0,0.01c-0.03,0-0.07-0.01-0.1-0.01
		c0,0,0,0,0,0.01c-0.03,0-0.07-0.01-0.1-0.01c0.39,2.17,1.58,3.76,4.15,3.76c0,0,0-0.01,0-0.01c0,0,0,0,0,0l-0.15,2.66
		c-0.51-1.91-2.1-2.68-4-2.86c0,0.01,0,0.01,0,0.01c-0.04,0-0.07-0.01-0.1-0.01c0,0.01,0,0.01,0,0.01c-0.04,0-0.07-0.01-0.1-0.01
		c0.4,2.17,1.58,3.76,4.15,3.76c0,0,0-0.01,0-0.01c0,0,0,0,0,0l0,0.01c0,0,0,0.2,0.2,0.2l1.71,1c-2.33,0.21-3.88,1.21-4.27,3.94
		c0.04,0,0.07-0.01,0.1-0.02c0,0.01,0,0.01,0,0.02c0.04,0,0.07-0.01,0.1-0.02c0,0.01,0,0.01,0,0.02c2.51-0.19,3.88-1.71,4.31-3.8
		l2.79,1.63c-2.17,0.2-3.94,1.19-4.14,3.75c0.04,0,0.07-0.01,0.1-0.01c0,0,0,0.01,0,0.01c0.04,0,0.07-0.01,0.1-0.01
		c0,0,0,0.01,0,0.01c2.53,0,3.71-1.53,4.12-3.65l2.86,1.67c-0.03,0-0.05,0.01-0.07,0.01c0-0.01,0-0.01,0-0.01
		c-2.18,0.2-3.95,1.19-4.15,3.75c0.04,0,0.07-0.01,0.1-0.01c0,0,0,0.01,0,0.01c0.04,0,0.07-0.01,0.1-0.01c0,0,0,0.01,0,0.01
		c2.54,0,3.73-1.55,4.13-3.68l2.07,1.21l-0.23,13.64l-5.07-2.67c0.03,0,0.05-0.01,0.08-0.01c0,0,0,0.01,0,0.01
		c2.77,0,3.95-1.78,4.35-3.95c-0.04,0-0.07,0.01-0.1,0.02c0-0.01,0-0.01,0-0.02c-0.04,0-0.07,0.01-0.1,0.02c0-0.01,0-0.01,0-0.02
		c-2.16,0.2-3.92,1.37-4.34,3.9l-2.91-1.53c0.01,0,0.03,0,0.04-0.01c0,0.01,0,0.01,0,0.02c0.04,0,0.07-0.01,0.1-0.02
		c0,0.01,0,0.01,0,0.02c2.57-0.2,3.75-1.78,4.15-3.95c-0.04,0-0.07,0.01-0.1,0.01c0-0.01,0-0.01,0-0.01c-0.04,0-0.07,0.01-0.1,0.01
		c0-0.01,0-0.01,0-0.01c-2.16,0.2-3.93,1.18-4.15,3.91l-2.94-1.55c2.55-0.21,3.73-1.78,4.12-3.95c-0.04,0-0.07,0.01-0.1,0.01
		c0-0.01,0-0.01,0-0.01c-0.04,0-0.07,0.01-0.1,0.01c0-0.01,0-0.01,0-0.01c-2.14,0.2-3.89,1.17-4.13,3.84l-2.78-1.47
		c-0.2,0-0.2-0.2-0.2-0.2l0-0.01c0,0,0,0,0,0c0,0,0,0,0,0.01c2.77,0,3.95-1.58,4.35-3.76c-0.04,0-0.07,0.01-0.1,0.01
		c0,0,0-0.01,0-0.01c-0.04,0-0.07,0.01-0.1,0.01c0,0,0-0.01,0-0.01c-2.12,0.18-3.6,1-4.18,3.01l-0.37-9.33c0-0.2-0.2-0.2-0.2-0.2
		s0,0,0,0.03c-0.02-0.01-0.03-0.01-0.04-0.01c-0.44-2.43-1.99-3.57-4.31-3.77c0,0.01,0,0.01,0,0.01c-0.04,0-0.07-0.01-0.1-0.01
		c0,0.01,0,0.01,0,0.01c-0.04,0-0.07-0.01-0.1-0.01c0.39,2.37,1.58,3.95,4.35,3.95c0,0,0,0,0-0.01c0,0,0,0,0,0c0,0,0,0,0,0.01
		l-0.15,2.66c-0.5-1.91-2.1-2.69-4-2.86c0,0.01,0,0.01,0,0.01c-0.04,0-0.07-0.01-0.1-0.01c0,0.01,0,0.01,0,0.01
		c-0.04,0-0.07-0.01-0.1-0.01c0.39,2.17,1.58,3.76,4.15,3.76c0,0,0-0.01,0-0.01c0,0,0,0,0.01,0l-0.15,2.79
		c-0.51-2.03-2.1-2.81-4-2.98c0,0.01,0,0.01,0,0.01c-0.04,0-0.07-0.01-0.1-0.01c0,0.01,0,0.01,0,0.01c-0.04,0-0.07-0.01-0.1-0.01
		c0.4,2.17,1.58,3.75,4.15,3.95l-0.13,2.35c-0.66-1.67-2.06-2.39-4.02-2.55c0,0,0,0.01,0,0.01c-0.04,0-0.07-0.01-0.1-0.01
		c0,0,0,0.01,0,0.01c-0.04,0-0.07-0.01-0.1-0.01c0.39,2.12,1.53,3.66,4.15,3.74l0,0.01c0,0,0,0.4,0.2,0.4l2,1.2
		c-0.01,0-0.02,0-0.03,0c0,0,0-0.01,0-0.01c-2.37,0.2-3.95,1.19-4.35,3.95c0.04,0,0.07-0.01,0.1-0.01c0,0.01,0,0.01,0,0.01
		c0.04,0,0.07-0.01,0.1-0.01c0,0.01,0,0.01,0,0.01c2.72-0.19,3.91-1.73,4.32-3.85l2.82,1.69c-0.01,0-0.03,0-0.04,0.01
		c0-0.01,0-0.01,0-0.01c-2.17,0.2-3.95,1.19-4.35,3.75c0.04,0,0.07-0.01,0.1-0.01c0,0,0,0,0,0.01c0.04,0,0.07-0.01,0.1-0.01
		c0,0,0,0,0,0.01c2.73,0,3.91-1.54,4.33-3.66l2.83,1.69c-0.02,0-0.03,0.01-0.05,0.01c0-0.01,0-0.01,0-0.01
		c-2.17,0.2-3.95,1.18-4.15,3.76c0.04,0,0.07-0.01,0.1-0.01c0,0,0,0.01,0,0.01c0.04,0,0.07-0.01,0.1-0.01c0,0,0,0.01,0,0.01
		c2.53,0,3.72-1.54,4.13-3.67l2.84,1.7c-0.02,0-0.04,0.01-0.06,0.01c0-0.01,0-0.01,0-0.01c-2.17,0.2-3.95,1.19-4.15,3.76
		c0.04,0,0.07-0.01,0.1-0.01c0,0,0,0.01,0,0.01c0.04,0,0.07-0.01,0.1-0.01c0,0,0,0.01,0,0.01c2.54,0,3.72-1.54,4.13-3.67l2.85,1.7
		c-0.02,0-0.05,0.01-0.07,0.01c0-0.01,0-0.01,0-0.01c-2.17,0.2-3.95,1.18-4.15,3.75c0.04,0,0.07-0.01,0.1-0.01c0,0,0,0.01,0,0.01
		c0.04,0,0.07-0.01,0.1-0.01c0,0,0,0.01,0,0.01c2.54,0,3.72-1.55,4.13-3.68l1.4,0.83l-0.27,15.82l-5.18-2.71c0.01,0,0.02,0,0.03,0
		c0,0.01,0,0.01,0,0.02c0.04,0,0.07-0.01,0.1-0.02c0,0.01,0,0.01,0,0.02c2.57-0.2,3.76-1.78,4.15-3.95c-0.04,0-0.07,0.01-0.1,0.01
		c0-0.01,0-0.01,0-0.01c-0.04,0-0.07,0.01-0.1,0.01c0-0.01,0-0.01,0-0.01c-2.16,0.2-3.93,1.18-4.14,3.9l-2.94-1.54
		c2.55-0.21,3.92-1.78,4.32-3.95c-0.04,0-0.07,0.01-0.1,0.01c0,0,0-0.01,0-0.01c-0.04,0-0.07,0.01-0.1,0.01c0,0,0-0.01,0-0.01
		c-2.33,0.19-3.9,1.17-4.32,3.84l-3.19-1.67c0.04,0,0.07-0.01,0.1-0.01c0,0,0,0,0,0.01c0.04,0,0.07-0.01,0.1-0.01c0,0,0,0,0,0.01
		c2.77,0,3.95-1.58,4.35-3.76c-0.04,0-0.07,0.01-0.1,0.01c0-0.01,0-0.01,0-0.01c-0.04,0-0.07,0.01-0.1,0.01c0-0.01,0-0.01,0-0.01
		c-2.17,0.2-3.95,1.19-4.35,3.76l-6.06-3.17c0.01,0,0.02,0,0.04,0c0,0,0,0.01,0,0.01c0.04,0,0.07-0.01,0.1-0.01c0,0,0,0.01,0,0.01
		c2.57,0,3.75-1.58,4.15-3.76c-0.04,0-0.07,0.01-0.1,0.01c0-0.01,0-0.01,0-0.01c-0.04,0-0.07,0.01-0.1,0.01c0-0.01,0-0.01,0-0.01
		c-2.16,0.2-3.93,1.18-4.14,3.72l-2.57-1.35c-0.14-0.07-0.22-0.14-0.28-0.2c0.03,0,0.05-0.01,0.08-0.01c0,0.01,0,0.01,0,0.02
		c2.57-0.2,3.76-1.78,4.15-3.95c-0.04,0-0.07,0.01-0.1,0.01c0-0.01,0-0.01,0-0.01c-0.04,0-0.07,0.01-0.1,0.01c0-0.01,0-0.01,0-0.01
		c-2.14,0.19-3.88,1.16-4.13,3.82c-0.01-0.03-0.02-0.06-0.02-0.06l-0.1-3.56c0.04,0,0.06-0.01,0.1-0.01c0,0,0,0.01,0,0.01
		c2.57,0,3.76-1.58,4.15-3.95c-0.04,0-0.07,0.01-0.1,0.02c0-0.01,0-0.01,0-0.02c-0.04,0-0.07,0.01-0.1,0.02c0-0.01,0-0.01,0-0.02
		c-2.01,0.18-3.67,1.23-4.07,3.42l-0.28-10.14l-0.2-0.2l-0.05,0.05l-0.03-0.03c-0.5-2.46-2.2-3.39-4.27-3.57c0,0.01,0,0.01,0,0.01
		c-0.04,0-0.07-0.01-0.1-0.01c0,0.01,0,0.01,0,0.01c-0.04,0-0.07-0.01-0.1-0.01c0.39,2.12,1.53,3.66,4.15,3.92l-0.07,2.54
		c-0.6-1.71-2.1-2.55-3.88-2.71c0,0.01,0,0.01,0,0.02c-0.04,0-0.07-0.01-0.1-0.02c0,0.01,0,0.01,0,0.02c-0.04,0-0.07-0.01-0.1-0.02
		c0.39,2.34,1.55,3.9,4.05,3.94l-0.07,2.8c-0.53-1.85-2.1-2.62-3.98-2.79c0,0.01,0,0.01,0,0.01c-0.04,0-0.07-0.01-0.1-0.01
		c0,0.01,0,0.01,0,0.01c-0.04,0-0.07-0.01-0.1-0.01c0.39,2.17,1.58,3.76,4.15,3.76c0,0,0-0.01,0-0.01c0,0,0,0,0,0l-0.07,2.89
		c-0.63-1.82-2.07-2.71-4.08-2.88c0,0.01,0,0.01,0,0.01c-0.04,0-0.07-0.01-0.1-0.01c0,0.01,0,0.01,0,0.01
		c-0.04,0-0.07-0.01-0.1-0.01c0.39,2.34,1.56,3.9,4.25,3.95l-0.07,2.79c-0.53-1.85-2.1-2.62-3.98-2.79c0,0.01,0,0.01,0,0.01
		c-0.04,0-0.07-0.01-0.1-0.01c0,0.01,0,0.01,0,0.01c-0.04,0-0.07-0.01-0.1-0.01c0.39,2.18,1.58,3.76,4.15,3.76c0,0,0-0.01,0-0.01
		c0,0,0,0,0,0l0,0.01c0,0,0,0.4,0.2,0.59l2.01,1.19c-0.01,0-0.02,0-0.03,0c0,0,0-0.01,0-0.01c-2.37,0.2-3.95,1.19-4.35,3.76
		c0.04,0,0.07-0.01,0.1-0.01c0,0,0,0.01,0,0.01c0.04,0,0.07-0.01,0.1-0.01c0,0,0,0.01,0,0.01c2.53,0,3.91-1.54,4.33-3.66l2.56,1.52
		c-2.24,0.25-3.74,1.44-4.12,3.92c0.04,0,0.07-0.01,0.1-0.01c0,0,0,0.01,0,0.01c0.04,0,0.07-0.01,0.1-0.01c0,0,0,0.01,0,0.01
		c2.47,0,3.84-1.47,4.29-3.7l2.61,1.55c-2.25,0.25-3.75,1.43-4.13,3.92c0.04,0,0.07-0.01,0.1-0.01c0,0,0,0.01,0,0.01
		c0.04,0,0.07-0.01,0.1-0.01c0,0,0,0.01,0,0.01c2.48,0,3.84-1.48,4.29-3.71l2.62,1.56c-2.26,0.24-3.77,1.24-4.15,3.93
		c0.04,0,0.07-0.01,0.1-0.02c0,0.01,0,0.01,0,0.02c0.04,0,0.07-0.01,0.1-0.02c0,0.01,0,0.01,0,0.02c2.48-0.19,3.84-1.67,4.29-3.73
		l5.63,3.35c-2.28,0.23-3.81,1.22-4.2,3.74c0.04,0,0.07-0.01,0.1-0.01c0,0,0,0.01,0,0.01c0.04,0,0.07-0.01,0.1-0.01
		c0,0,0,0.01,0,0.01c2.49,0,3.86-1.49,4.3-3.56l4.85,2.89L37.36,82.8l-27.06-14c-0.4-0.2-0.4-0.39-0.4-0.39L9.3,49.42
		c0-0.2,0-0.39-0.2-0.39c0,0-0.01,0.01-0.02,0.02c-0.02-0.01-0.04-0.02-0.08-0.02c0,0-0.01,0.01-0.02,0.02
		c-0.02-0.01-0.04-0.02-0.08-0.02c0,0-0.2,0.2-0.2,0.39l-0.13,4.49c-0.49-1.98-2.1-2.93-4.01-3.1c0,0.01,0,0.01,0,0.02
		c-0.04,0-0.07-0.01-0.1-0.02c0,0.01,0,0.01,0,0.02c-0.04,0-0.07-0.01-0.1-0.02c0.39,2.37,1.58,3.95,4.15,3.95c0,0,0-0.01,0-0.01
		c0.01,0,0.02,0,0.04,0l-0.09,2.91c-0.66-1.97-2.23-2.74-4.1-2.91c0,0.01,0,0.01,0,0.01c-0.04,0-0.07-0.01-0.1-0.01
		c0,0.01,0,0.01,0,0.01c-0.04,0-0.07-0.01-0.1-0.01c0.39,2.15,1.56,3.72,4.27,3.94l-0.2,6.81c-0.39-2.17-2.05-3.05-4.06-3.24
		c0,0.01,0,0.01,0,0.01c-0.04,0-0.07-0.01-0.1-0.01c0,0.01,0,0.01,0,0.01c-0.04,0-0.07-0.01-0.1-0.01c0.39,2.17,1.58,3.75,4.15,3.75
		c0,0,0-0.01,0-0.01c0.04,0,0.07,0.01,0.1,0.01l-0.1,3.36c0,0-0.2,0.39,0.2,0.59L37.28,87.1l-0.25,14.91L3.77,85
		c-0.39-0.4-0.39-0.79-0.39-0.79L2.58,61.68c0-0.39-0.2-0.59-0.2-0.59c-0.03,0-0.06,0.01-0.08,0.03c-0.01-0.01-0.02-0.03-0.02-0.03
		c-0.03,0-0.06,0.01-0.08,0.03c-0.01-0.01-0.02-0.03-0.02-0.03c-0.2,0-0.2,0.2-0.2,0.59L1,85.59c0,0,0,0.59,0.39,0.79l35.54,20.88
		l-0.16,9.56l-3.76,1.78v0.4h0.1h0.1h11.46h0.1h0.1v-0.4l-3.76-1.78l-0.17-9.67l35.55-20.77c0.39-0.2,0.2-0.79,0.2-0.79L75.91,61.68
		z M61.98,45.86C61.98,45.86,61.98,45.86,61.98,45.86L61.98,45.86C61.98,45.86,61.98,45.86,61.98,45.86z M33.03,28.09
		c0,0-0.01,0-0.01,0c0,0,0-0.01,0-0.01L33.03,28.09z M16.91,48.82C16.91,48.82,16.91,48.82,16.91,48.82L16.91,48.82
		C16.91,48.82,16.91,48.82,16.91,48.82z M8.21,66.02C8.21,66.02,8.21,66.02,8.21,66.02L8.21,66.02C8.21,66.02,8.21,66.02,8.21,66.02
		z"/>
	<path class="st0" d="M48.04,74.92l0.4-1.38l-0.12,0.06l0.02-0.06l-0.12,0.06l0.02-0.06l-1.02,0.51c-0.01,0-0.01-0.01-0.02-0.01
		l-0.55-1.09l-0.04,0.12l-0.06-0.12l-0.04,0.12l-0.06-0.12L46.11,74c-0.03,0.01-0.07,0.01-0.1,0.02l-1.13-0.48l0.02,0.05l-0.12-0.05
		l0.02,0.05l-0.12-0.05l0.52,1.2c-0.03,0.07-0.03,0.15-0.05,0.22l-1.06,0.35l1.08,0.54c0.02,0.05,0.04,0.09,0.06,0.14l-0.55,1.1
		l0.12-0.03l-0.02,0.03l0.12-0.03l-0.02,0.03l1.09-0.31c0.05,0.02,0.09,0.04,0.14,0.05l0.35,1.05l0.06-0.12l0.04,0.12l0.06-0.12
		l0.04,0.12l0.56-1.13l1.01,0.34l-0.01-0.04l0.11,0.04l-0.01-0.04l0.11,0.04l-0.4-1.19l1.19-0.59L48.04,74.92z"/>
	<path class="st0" d="M58.32,86.78l-1.25-0.36c-0.02-0.07-0.02-0.15-0.05-0.22l0.52-1.2l-0.13,0.06L57.43,85l-0.13,0.06L57.33,85
		l-1.02,0.51c-0.01,0-0.01-0.01-0.02-0.01l-0.55-1.09l-0.05,0.1l-0.05-0.1l-0.05,0.1l-0.05-0.1L55,85.5c-0.01,0-0.01,0.01-0.01,0.01
		L53.97,85l0.02,0.06L53.87,85l0.02,0.06L53.77,85l0.4,1.38l-1.19,0.39l1.19,0.59l-0.4,1.19l0.11-0.04l-0.01,0.04l0.11-0.04
		l-0.01,0.04l1.01-0.34l0.56,1.13l0.05-0.1l0.05,0.1l0.05-0.1l0.05,0.1l0.57-1.13l1.01,0.34l-0.02-0.04l0.12,0.04l-0.02-0.04
		l0.12,0.04l-0.55-1.1c0.02-0.04,0.04-0.09,0.06-0.13L58.32,86.78z"/>
	<polygon class="st0" points="60.1,101.01 60.5,99.63 60.38,99.69 60.4,99.63 60.28,99.69 60.3,99.63 59.27,100.14 58.72,99.04 
		58.67,99.14 58.62,99.04 58.57,99.14 58.52,99.04 57.96,100.14 56.94,99.63 56.95,99.69 56.84,99.63 56.85,99.69 56.74,99.63 
		57.13,101.01 55.95,101.41 57.13,102 56.74,103.19 56.85,103.15 56.84,103.19 56.95,103.15 56.94,103.19 57.95,102.85 
		58.52,103.98 58.57,103.88 58.62,103.98 58.67,103.88 58.72,103.98 59.28,102.85 60.3,103.19 60.28,103.15 60.4,103.19 
		60.38,103.15 60.5,103.19 60.1,102 61.28,101.41 	"/>
	<path class="st0" d="M54.87,102.84c0-0.02,0-0.03-0.01-0.05c-0.03,0.02-0.06,0.03-0.09,0.05c0-0.02,0-0.03-0.01-0.05
		c-2.17,0.99-3.36,2.57-2.57,5.14c0.03-0.01,0.06-0.03,0.09-0.05c0,0.02,0.01,0.03,0.01,0.05c0.03-0.01,0.06-0.03,0.09-0.05
		c0,0.02,0.01,0.03,0.01,0.05c2.37-0.99,2.96-2.97,2.57-5.14C54.93,102.81,54.9,102.83,54.87,102.84z"/>
	<path class="st0" d="M67.61,92.71C67.61,92.72,67.61,92.72,67.61,92.71c-0.03,0.01-0.06,0-0.1,0c0,0,0,0.01,0,0.01
		c-0.04,0-0.06-0.01-0.1-0.01c0,2.57,1.78,3.75,4.15,3.95c0,0,0-0.01,0-0.01c0.04,0,0.07,0.01,0.1,0.01c0,0,0-0.01,0-0.01
		c0.03,0,0.07,0.01,0.1,0.01C71.56,94.49,70.38,92.71,67.61,92.71z"/>
	<path class="st0" d="M49.63,71.96c0,0,0,0.01,0,0.01c-0.04,0-0.07-0.01-0.1-0.01c0,0,0,0.01,0,0.01c-0.04,0-0.07-0.01-0.1-0.01
		c0.39,2.17,1.78,3.76,4.35,3.76c0,0,0-0.01,0-0.01c0.04,0,0.07,0.01,0.1,0.01c0,0,0-0.01,0-0.01c0.04,0,0.07,0.01,0.1,0.01
		C53.58,73.14,52,72.16,49.63,71.96z"/>
	<path class="st0" d="M60.3,77.49c-0.03,0.02-0.06,0.04-0.09,0.05c0-0.02,0-0.03-0.01-0.05c-0.03,0.02-0.06,0.04-0.09,0.05
		c0-0.02,0-0.03-0.01-0.05c-1.98,0.99-3.36,2.57-2.57,5.14c0.03-0.01,0.06-0.03,0.09-0.05c0,0.02,0,0.03,0.01,0.05
		c0.03-0.01,0.06-0.03,0.09-0.05c0,0.02,0.01,0.03,0.01,0.05C60.1,81.64,60.69,79.67,60.3,77.49z"/>
	<path class="st0" d="M45.47,93.3c0,0.01,0,0.01,0,0.02c-0.04,0-0.07-0.01-0.1-0.02c0,0.01,0,0.01,0,0.02
		c-0.04,0-0.07-0.01-0.1-0.02c0.39,2.37,1.58,3.95,4.15,3.95c0,0,0-0.01,0-0.01c0.04,0,0.07,0.01,0.1,0.01c0,0,0-0.01,0-0.01
		c0.04,0,0.07,0.01,0.1,0.01C49.43,94.69,47.65,93.5,45.47,93.3z"/>
</g>
</svg>
