<?xml version="1.0"?>
<svg xmlns="http://www.w3.org/2000/svg" version="1" viewBox="0 0 24 24" enable-background="new 0 0 24 24">
    <path d="M 11.84375 1.96875 C 11.64375 1.96875 11.4625 2.0375 11.3125 2.1875 L 9.90625 3.5 L 8.3125 3.1875 C 7.8125 3.0875 7.50625 3.4125 7.40625 3.8125 L 7.09375 5.59375 L 5.40625 6.40625 C 5.00625 6.60625 4.89375 7.00625 5.09375 7.40625 L 5.90625 9 L 5.09375 10.59375 C 4.89375 10.99375 5.10625 11.39375 5.40625 11.59375 L 7.09375 12.40625 L 7.40625 14.1875 C 7.50625 14.5875 7.9125 14.9125 8.3125 14.8125 L 10.1875 14.5 L 11.59375 15.8125 C 11.89375 16.1125 12.3875 16.1125 12.6875 15.8125 L 14.09375 14.5 L 16 14.8125 C 16.4 14.9125 16.80625 14.5875 16.90625 14.1875 L 17.1875 12.40625 L 18.90625 11.59375 C 19.30625 11.39375 19.3875 10.99375 19.1875 10.59375 L 18.09375 9 L 18.90625 7.40625 C 19.10625 7.00625 18.99375 6.60625 18.59375 6.40625 L 16.90625 5.59375 L 16.59375 3.8125 C 16.49375 3.4125 16.0875 3.0875 15.6875 3.1875 L 13.8125 3.5 L 12.40625 2.1875 C 12.25625 2.0375 12.04375 1.96875 11.84375 1.96875 z M 6.09375 13.09375 L 3 19.3125 L 6.59375 18.8125 L 8.40625 22 L 11 16.6875 L 10.8125 16.5 L 9.8125 15.59375 L 8.40625 15.8125 C 7.50625 15.9125 6.60625 15.30625 6.40625 14.40625 L 6.1875 13.09375 L 6.09375 13.09375 z M 17.90625 13.09375 L 17.59375 14.40625 C 17.39375 15.20625 16.70625 15.8125 15.90625 15.8125 L 15.6875 15.8125 L 14.3125 15.59375 L 13.3125 16.5 L 13.09375 16.6875 L 15.6875 22 L 17.5 18.90625 L 21.09375 19.40625 L 17.90625 13.09375 z"/>
</svg>
