<?xml version="1.0" encoding="utf-8"?>
<!-- Generator: Adobe Illustrator 25.2.3, SVG Export Plug-In . SVG Version: 6.00 Build 0)  -->
<svg version="1.1" id="Layer_1" xmlns="http://www.w3.org/2000/svg" xmlns:xlink="http://www.w3.org/1999/xlink" x="0px" y="0px"
	 viewBox="0 0 64 64" style="enable-background:new 0 0 64 64;" xml:space="preserve">
<g>
	<path d="M60.5,26.7C60.5,26.7,60.5,26.7,60.5,26.7c-0.2-0.1-0.3-0.1-0.4-0.1c-0.6,0-1.1,0.5-1.1,1.1c0,0.3,0.1,0.6,0.3,0.8
		c0,0,0.1,0,0.1,0.1c0.1,0.1,0.2,0.2,0.2,0.4c0,0.1,0,0.1,0,0.2c0,0,0,0.1-0.1,0.1c-0.3,0.6-0.7,1.2-1.2,1.7
		c-0.2,0.2-0.4,0.4-0.6,0.5c-1,0.8-2.3,1.3-3.8,1.3c-2.8,0-5.2-1.9-5.9-4.5l0-0.2c0,0,0-0.1,0-0.1c0-0.2,0.2-0.4,0.3-0.5
		c0,0,0,0,0,0c0.4-0.2,0.6-0.5,0.6-1c0-0.6-0.4-1-1-1.1c0,0-0.1,0-0.1,0c0,0-0.1,0-0.1,0c-0.6,0-1,0.5-1,1.1c0,0.4,0.2,0.8,0.6,1
		c0,0,0,0,0.1,0c0.2,0.1,0.3,0.3,0.3,0.5c0,0,0,0.1,0,0.1c0,0,0,0,0,0c-0.7,3.6-3.9,6.3-7.7,6.3c-0.9,0-1.8-0.2-2.6-0.5
		c-2.7-1-4.8-3.4-5.2-6.3c0-0.1,0-0.2,0-0.3c0-0.4,0.2-0.7,0.4-0.9c0.1,0,0.1-0.1,0.2-0.1c0.1,0,0.1-0.1,0.2-0.1
		c0.7-0.3,1.2-1.1,1.2-1.9c0-0.8-0.4-1.5-1.1-1.8c-0.3-0.2-0.7-0.3-1-0.3s-0.7,0.1-1,0.3c-0.6,0.4-1.1,1-1.1,1.8
		c0,0.9,0.5,1.6,1.2,1.9c0.1,0,0.1,0,0.2,0.1c0.1,0,0.1,0.1,0.2,0.1c0.3,0.2,0.4,0.5,0.4,0.9c0,0.1,0,0.2,0,0.3
		c-0.4,2.9-2.5,5.4-5.2,6.3c-0.8,0.3-1.7,0.5-2.6,0.5c-3.8,0-7-2.7-7.7-6.3c0,0,0,0,0,0c0,0,0-0.1,0-0.1c0-0.2,0.1-0.4,0.3-0.5
		c0,0,0,0,0.1,0c0.4-0.2,0.6-0.5,0.6-1c0-0.6-0.4-1-1-1.1c0,0,0,0-0.1,0c0,0-0.1,0-0.1,0c-0.6,0.1-1,0.5-1,1.1c0,0.4,0.2,0.8,0.6,1
		c0,0,0,0,0,0c0.1,0.1,0.3,0.3,0.3,0.5c0,0,0,0.1,0,0.1l0,0.2c-0.7,2.6-3.1,4.5-5.9,4.5c-1.4,0-2.7-0.5-3.8-1.3
		c-0.2-0.2-0.4-0.3-0.6-0.5c-0.5-0.5-0.9-1-1.2-1.7c0,0,0-0.1-0.1-0.1c0-0.1,0-0.1,0-0.2c0-0.2,0.1-0.3,0.2-0.4c0,0,0.1-0.1,0.1-0.1
		C4.9,28.3,5,28,5,27.7c0-0.6-0.5-1.1-1.1-1.1c-0.1,0-0.3,0-0.4,0.1c0,0,0,0,0,0c-0.4,0.2-0.7,0.6-0.7,1c0,0.6,0.5,1.1,1.1,1.1
		c0,0,0,0,0,0c0,0,0,0,0.1,0c0.2,0,0.3,0.1,0.4,0.2c0,0.1,0.1,0.2,0.1,0.3c0,0.1,0.1,0.2,0.1,0.3c0.5,1.5,0.8,3,1.1,4.5
		c0,0.2,0.1,0.5,0.1,0.7C5.9,35.5,6,36.2,6,37c0.1,0.8,0.1,1.7,0.1,2.5c0,0.5,0,1,0,1.5c0,0,0,0,0,0c0,0,0,0,0,0
		c0,0.3,0.2,0.5,0.6,0.6c0,0,0,0,0,0c0,0,0,0,0,0h9.5h10.5H32h5.3h10.5h9.5c0,0,0,0,0,0s0,0,0,0c0.3,0,0.5-0.3,0.6-0.6c0,0,0,0,0,0
		c0,0,0,0,0,0c0-0.5,0-1,0-1.5c0-0.9,0-1.7,0.1-2.5c0.1-0.7,0.1-1.5,0.2-2.2c0-0.2,0.1-0.5,0.1-0.7c0.3-1.5,0.6-3.1,1.1-4.5
		c0-0.1,0.1-0.2,0.1-0.3c0-0.1,0.1-0.2,0.1-0.3c0.1-0.1,0.2-0.2,0.4-0.2c0,0,0,0,0.1,0c0,0,0,0,0,0c0.6,0,1.1-0.5,1.1-1.1
		C61.2,27.2,60.9,26.8,60.5,26.7z"/>
	<circle cx="61.7" cy="25.4" r="0.5"/>
	<circle cx="2.3" cy="25.4" r="0.5"/>
</g>
</svg>
